<svg width="105" height="81" viewBox="0 0 105 81" fill="none" xmlns="http://www.w3.org/2000/svg">
<mask id="path-1-outside-1_39_211" maskUnits="userSpaceOnUse" x="-2" y="-2" width="109" height="85" fill="black">
<rect fill="white" x="-2" y="-2" width="109" height="85"/>
<path d="M21.4 80.44C16.728 80.44 12.824 79.512 9.688 77.656C6.552 75.736 4.184 73.112 2.584 69.784C0.984 66.456 0.184 62.584 0.184 58.168V22.936C0.184 18.392 0.92 14.424 2.392 11.032C3.928 7.576 6.264 4.888 9.4 2.96799C12.536 1.048 16.536 0.0879974 21.4 0.0879974C26.264 0.0879974 30.232 1.048 33.304 2.96799C36.44 4.888 38.744 7.576 40.216 11.032C41.752 14.424 42.52 18.392 42.52 22.936V58.168C42.52 62.52 41.72 66.392 40.12 69.784C38.52 73.112 36.152 75.736 33.016 77.656C29.88 79.512 26.008 80.44 21.4 80.44ZM21.4 66.136C22.936 66.136 24.024 65.656 24.664 64.696C25.368 63.672 25.784 62.52 25.912 61.24C26.104 59.896 26.2 58.744 26.2 57.784V23.32C26.2 22.232 26.136 21.016 26.008 19.672C25.88 18.264 25.464 17.048 24.76 16.024C24.12 14.936 23 14.392 21.4 14.392C19.8 14.392 18.648 14.936 17.944 16.024C17.304 17.048 16.92 18.264 16.792 19.672C16.664 21.016 16.6 22.232 16.6 23.32V57.784C16.6 58.744 16.696 59.896 16.888 61.24C17.08 62.52 17.496 63.672 18.136 64.696C18.84 65.656 19.928 66.136 21.4 66.136ZM61.3172 79V67.672L79.9412 39.064C81.3492 36.952 82.6612 34.904 83.8773 32.92C85.1572 30.936 86.1812 28.92 86.9493 26.872C87.7812 24.824 88.1972 22.68 88.1972 20.44C88.1972 18.2 87.7492 16.536 86.8532 15.448C85.9572 14.36 84.7413 13.816 83.2053 13.816C81.4773 13.816 80.1332 14.296 79.1732 15.256C78.2132 16.216 77.5412 17.496 77.1572 19.096C76.8372 20.696 76.6772 22.488 76.6772 24.472V28.312H61.1252V24.184C61.1252 19.576 61.8612 15.48 63.3332 11.896C64.8052 8.248 67.1412 5.4 70.3412 3.352C73.5412 1.24 77.7332 0.183996 82.9172 0.183996C89.8933 0.183996 95.1413 2.008 98.6612 5.65599C102.245 9.24 104.037 14.264 104.037 20.728C104.037 23.864 103.525 26.776 102.501 29.464C101.541 32.152 100.229 34.776 98.5653 37.336C96.9653 39.832 95.2373 42.456 93.3813 45.208L79.1732 66.424H101.925V79H61.3172Z"/>
</mask>
<path d="M9.688 77.656L8.64369 79.3617L8.65647 79.3695L8.66936 79.3772L9.688 77.656ZM2.584 69.784L4.38651 68.9174L2.584 69.784ZM2.392 11.032L0.564377 10.2197L0.560809 10.2278L0.557311 10.2358L2.392 11.032ZM9.4 2.96799L8.35569 1.26229H8.35569L9.4 2.96799ZM33.304 2.96799L32.244 4.66399L32.2518 4.66888L32.2597 4.6737L33.304 2.96799ZM40.216 11.032L38.376 11.8157L38.3848 11.8365L38.3941 11.857L40.216 11.032ZM40.12 69.784L41.9225 70.6506L41.9257 70.6439L41.9289 70.6372L40.12 69.784ZM33.016 77.656L34.0346 79.3772L34.0475 79.3695L34.0603 79.3617L33.016 77.656ZM24.664 64.696L23.0159 63.5629L23.0078 63.5747L22.9999 63.5866L24.664 64.696ZM25.912 61.24L23.9321 60.9572L23.9261 60.999L23.9219 61.041L25.912 61.24ZM26.008 19.672L24.0162 19.8531L24.017 19.8616L26.008 19.672ZM24.76 16.024L23.0361 17.038L23.0719 17.0989L23.1119 17.1571L24.76 16.024ZM17.944 16.024L16.2649 14.9375L16.2563 14.9507L16.248 14.964L17.944 16.024ZM16.792 19.672L18.783 19.8616L18.7838 19.8531L16.792 19.672ZM16.888 61.24L14.9081 61.5229L14.9101 61.5367L16.888 61.24ZM18.136 64.696L16.44 65.756L16.4793 65.8189L16.5232 65.8787L18.136 64.696ZM21.4 78.44C16.9871 78.44 13.4587 77.5636 10.7066 75.9348L8.66936 79.3772C12.1893 81.4604 16.4689 82.44 21.4 82.44V78.44ZM10.7323 75.9503C7.92598 74.2321 5.82051 71.9001 4.38651 68.9174L0.781496 70.6506C2.54749 74.3239 5.17802 77.2399 8.64369 79.3617L10.7323 75.9503ZM4.38651 68.9174C2.93952 65.9077 2.184 62.3421 2.184 58.168H-1.816C-1.816 62.8259 -0.971516 67.0043 0.781496 70.6506L4.38651 68.9174ZM2.184 58.168V22.936H-1.816V58.168H2.184ZM2.184 22.936C2.184 18.6049 2.88566 14.9184 4.22669 11.8282L0.557311 10.2358C-1.04566 13.9296 -1.816 18.1791 -1.816 22.936H2.184ZM4.21962 11.8443C5.59605 8.74732 7.66424 6.37579 10.4443 4.6737L8.35569 1.26229C4.86376 3.40021 2.25995 6.40468 0.564377 10.2197L4.21962 11.8443ZM10.4443 4.6737C13.1799 2.99883 16.7886 2.088 21.4 2.088V-1.912C16.2834 -1.912 11.8921 -0.902836 8.35569 1.26229L10.4443 4.6737ZM21.4 2.088C26.0139 2.088 29.5813 2.99978 32.244 4.66399L34.364 1.272C30.8827 -0.903786 26.5141 -1.912 21.4 -1.912V2.088ZM32.2597 4.6737C35.0329 6.37161 37.0631 8.73346 38.376 11.8157L42.056 10.2483C40.4249 6.41853 37.8471 3.40438 34.3483 1.26229L32.2597 4.6737ZM38.3941 11.857C39.7898 14.9392 40.52 18.6152 40.52 22.936H44.52C44.52 18.1688 43.7142 13.9088 42.0379 10.207L38.3941 11.857ZM40.52 22.936V58.168H44.52V22.936H40.52ZM40.52 58.168C40.52 62.2721 39.7666 65.8452 38.3111 68.9308L41.9289 70.6372C43.6734 66.9388 44.52 62.7679 44.52 58.168H40.52ZM38.3175 68.9174C36.8835 71.9001 34.778 74.2321 31.9717 75.9503L34.0603 79.3617C37.526 77.2399 40.1565 74.3239 41.9225 70.6506L38.3175 68.9174ZM31.9974 75.9348C29.2414 77.5659 25.7431 78.44 21.4 78.44V82.44C26.2729 82.44 30.5186 81.4581 34.0346 79.3772L31.9974 75.9348ZM21.4 68.136C23.3591 68.136 25.199 67.4991 26.3281 65.8054L22.9999 63.5866C22.849 63.8129 22.5129 64.136 21.4 64.136V68.136ZM26.3121 65.8291C27.2138 64.5175 27.7418 63.0419 27.9021 61.439L23.9219 61.041C23.8262 61.9981 23.5222 62.8265 23.0159 63.5629L26.3121 65.8291ZM27.8919 61.5228C28.0923 60.1202 28.2 58.8684 28.2 57.784H24.2C24.2 58.6196 24.1157 59.6718 23.9321 60.9572L27.8919 61.5228ZM28.2 57.784V23.32H24.2V57.784H28.2ZM28.2 23.32C28.2 22.1558 28.1316 20.8751 27.999 19.4824L24.017 19.8616C24.1404 21.1569 24.2 22.3082 24.2 23.32H28.2ZM27.9998 19.4909C27.8451 17.7891 27.3318 16.2346 26.4081 14.8909L23.1119 17.1571C23.5962 17.8614 23.9149 18.7389 24.0162 19.8531L27.9998 19.4909ZM26.4839 15.01C25.3858 13.1433 23.4897 12.392 21.4 12.392V16.392C22.5103 16.392 22.8542 16.7287 23.0361 17.038L26.4839 15.01ZM21.4 12.392C19.3038 12.392 17.4265 13.1422 16.2649 14.9375L19.6231 17.1105C19.8695 16.7298 20.2962 16.392 21.4 16.392V12.392ZM16.248 14.964C15.4157 16.2956 14.9518 17.824 14.8002 19.4909L18.7838 19.8531C18.8883 18.704 19.1923 17.8004 19.64 17.084L16.248 14.964ZM14.801 19.4824C14.6684 20.8751 14.6 22.1558 14.6 23.32H18.6C18.6 22.3082 18.6596 21.1569 18.783 19.8616L14.801 19.4824ZM14.6 23.32V57.784H18.6V23.32H14.6ZM14.6 57.784C14.6 58.8684 14.7077 60.1202 14.9081 61.5228L18.8679 60.9572C18.6843 59.6718 18.6 58.6196 18.6 57.784H14.6ZM14.9101 61.5367C15.1398 63.068 15.6445 64.4832 16.44 65.756L19.832 63.636C19.3475 62.8608 19.0202 61.972 18.8659 60.9433L14.9101 61.5367ZM16.5232 65.8787C17.6935 67.4747 19.4593 68.136 21.4 68.136V64.136C20.3967 64.136 19.9865 63.8373 19.7488 63.5133L16.5232 65.8787ZM61.3172 79H59.3172V81H61.3172V79ZM61.3172 67.672L59.6411 66.5808L59.3172 67.0783V67.672H61.3172ZM79.9413 39.064L78.2771 37.9546L78.2711 37.9637L78.2651 37.9728L79.9413 39.064ZM83.8773 32.92L82.1967 31.8357L82.1841 31.8552L82.1721 31.8749L83.8773 32.92ZM86.9492 26.872L85.0963 26.1192L85.0861 26.1444L85.0766 26.1697L86.9492 26.872ZM86.8532 15.448L88.3971 14.1766V14.1766L86.8532 15.448ZM77.1572 19.096L75.2125 18.6293L75.2036 18.6664L75.1961 18.7038L77.1572 19.096ZM76.6772 28.312V30.312H78.6772V28.312H76.6772ZM61.1253 28.312H59.1253V30.312H61.1253V28.312ZM63.3333 11.896L65.1833 12.6558L65.188 12.6444L63.3333 11.896ZM70.3412 3.352L71.4194 5.03654L71.4312 5.02896L71.4429 5.02121L70.3412 3.352ZM98.6612 5.65599L97.222 7.04473L97.2344 7.05758L97.247 7.07021L98.6612 5.65599ZM102.501 29.464L100.632 28.752L100.625 28.7716L100.618 28.7913L102.501 29.464ZM98.5652 37.336L96.8883 36.246L96.8815 36.2567L98.5652 37.336ZM93.3812 45.208L91.7231 44.0897L91.7195 44.0951L93.3812 45.208ZM79.1732 66.424L77.5115 65.3111L75.4268 68.424H79.1732V66.424ZM101.925 66.424H103.925V64.424H101.925V66.424ZM101.925 79V81H103.925V79H101.925ZM63.3172 79V67.672H59.3172V79H63.3172ZM62.9934 68.7632L81.6174 40.1552L78.2651 37.9728L59.6411 66.5808L62.9934 68.7632ZM81.6054 40.1734C83.0262 38.0421 84.352 35.9726 85.5825 33.9651L82.1721 31.8749C80.9705 33.8353 79.6723 35.8619 78.2771 37.9546L81.6054 40.1734ZM85.5578 34.0042C86.9092 31.9096 87.9999 29.7662 88.8219 27.5742L85.0766 26.1697C84.3626 28.0738 83.4053 29.9624 82.1967 31.8357L85.5578 34.0042ZM88.8022 27.6247C89.7326 25.3344 90.1973 22.9345 90.1973 20.44H86.1973C86.1973 22.4255 85.8299 24.3136 85.0963 26.1192L88.8022 27.6247ZM90.1973 20.44C90.1973 17.9929 89.7179 15.7804 88.3971 14.1766L85.3094 16.7194C85.7806 17.2916 86.1973 18.4071 86.1973 20.44H90.1973ZM88.3971 14.1766C87.084 12.5821 85.2778 11.816 83.2053 11.816V15.816C84.2047 15.816 84.8305 16.1379 85.3094 16.7194L88.3971 14.1766ZM83.2053 11.816C81.0987 11.816 79.1894 12.4114 77.759 13.8418L80.5875 16.6702C81.0771 16.1805 81.8558 15.816 83.2053 15.816V11.816ZM77.759 13.8418C76.4878 15.113 75.6643 16.7468 75.2125 18.6293L79.102 19.5627C79.4182 18.2452 79.9387 17.319 80.5875 16.6702L77.759 13.8418ZM75.1961 18.7038C74.8454 20.457 74.6772 22.3834 74.6772 24.472H78.6772C78.6772 22.5926 78.8291 20.935 79.1184 19.4882L75.1961 18.7038ZM74.6772 24.472V28.312H78.6772V24.472H74.6772ZM76.6772 26.312H61.1253V30.312H76.6772V26.312ZM63.1253 28.312V24.184H59.1253V28.312H63.1253ZM63.1253 24.184C63.1253 19.7882 63.8272 15.9577 65.1833 12.6558L61.4832 11.1362C59.8953 15.0023 59.1253 19.3638 59.1253 24.184H63.1253ZM65.188 12.6444C66.5104 9.36695 68.5821 6.85238 71.4194 5.03654L69.2631 1.66745C65.7004 3.94762 63.1001 7.12904 61.4785 11.1476L65.188 12.6444ZM71.4429 5.02121C74.2195 3.18869 77.9906 2.184 82.9173 2.184V-1.816C77.4759 -1.816 72.863 -0.708694 69.2396 1.68278L71.4429 5.02121ZM82.9173 2.184C89.5601 2.184 94.2032 3.91615 97.222 7.04473L100.1 4.26726C96.0793 0.0998459 90.2264 -1.816 82.9173 -1.816V2.184ZM97.247 7.07021C100.36 10.1831 102.037 14.6412 102.037 20.728H106.037C106.037 13.8868 104.131 8.29685 100.075 4.24178L97.247 7.07021ZM102.037 20.728C102.037 23.6427 101.562 26.3111 100.632 28.752L104.37 30.176C105.488 27.2409 106.037 24.0853 106.037 20.728H102.037ZM100.618 28.7913C99.7137 31.3228 98.4734 33.8076 96.8884 36.246L100.242 38.426C101.985 35.7444 103.369 32.9812 104.385 30.1367L100.618 28.7913ZM96.8815 36.2567C95.2908 38.7382 93.5714 41.3491 91.7231 44.0897L95.0394 46.3263C96.9031 43.5629 98.6397 40.9258 100.249 38.4153L96.8815 36.2567ZM91.7195 44.0951L77.5115 65.3111L80.835 67.5369L95.043 46.3209L91.7195 44.0951ZM79.1732 68.424H101.925V64.424H79.1732V68.424ZM99.9252 66.424V79H103.925V66.424H99.9252ZM101.925 77H61.3172V81H101.925V77Z" fill="black" mask="url(#path-1-outside-1_39_211)"/>
</svg>
