<svg width="455" height="462" viewBox="0 0 455 462" fill="none" xmlns="http://www.w3.org/2000/svg">
<path d="M158.245 592.49C-5.11092 592.49 -138 459.601 -138 296.245C-138 132.889 -5.11092 0 158.245 0C321.601 0 454.49 132.889 454.49 296.245C454.49 459.601 321.601 592.49 158.245 592.49ZM158.245 3.67384C-3.04993 3.67384 -134.326 134.905 -134.326 296.245C-134.326 457.54 -3.09473 588.816 158.245 588.816C319.585 588.816 450.816 457.585 450.816 296.245C450.771 134.905 319.54 3.67384 158.245 3.67384Z" fill="#292524" fill-opacity="0.06"/>
<path d="M158.245 563.905C10.6602 563.905 -109.415 443.83 -109.415 296.245C-109.415 148.66 10.6602 28.585 158.245 28.585C305.83 28.585 425.905 148.66 425.905 296.245C425.905 443.83 305.83 563.905 158.245 563.905ZM158.245 35.9776C14.7373 35.9776 -102.022 152.737 -102.022 296.245C-102.022 439.753 14.7373 556.512 158.245 556.512C301.753 556.512 418.512 439.753 418.512 296.245C418.467 152.737 301.753 35.9776 158.245 35.9776Z" fill="#292524" fill-opacity="0.06"/>
<path d="M158.245 489.53C51.6558 489.53 -35.085 402.789 -35.085 296.2C-35.085 189.611 51.6558 102.87 158.245 102.87C264.834 102.87 351.575 189.611 351.575 296.2C351.575 402.834 264.834 489.53 158.245 489.53ZM158.245 110.308C55.733 110.308 -27.6475 193.688 -27.6475 296.2C-27.6475 398.712 55.733 482.093 158.245 482.093C260.757 482.093 344.137 398.712 344.137 296.2C344.137 193.733 260.757 110.308 158.245 110.308Z" fill="#292524" fill-opacity="0.06"/>
<path d="M158.245 456.33C69.9809 456.33 -1.84015 384.509 -1.84015 296.245C-1.84015 207.981 69.9809 136.115 158.245 136.115C246.509 136.115 318.375 207.936 318.375 296.245C318.33 384.509 246.509 456.33 158.245 456.33ZM158.245 139.834C71.9971 139.834 1.83382 209.997 1.83382 296.245C1.83382 382.493 71.9971 452.656 158.245 452.656C244.493 452.656 314.656 382.493 314.656 296.245C314.656 209.997 244.493 139.834 158.245 139.834Z" fill="#292524" fill-opacity="0.06"/>
<path d="M158.245 395.8C103.315 395.8 58.6454 351.13 58.6454 296.2C58.6454 241.27 103.315 196.601 158.245 196.601C213.175 196.601 257.845 241.27 257.845 296.2C257.845 351.13 213.13 395.8 158.245 395.8ZM158.245 204.038C107.437 204.038 66.083 245.392 66.083 296.2C66.083 347.008 107.437 388.362 158.245 388.362C209.053 388.362 250.407 347.008 250.407 296.2C250.407 245.392 209.053 204.038 158.245 204.038Z" fill="#292524" fill-opacity="0.06"/>
<path d="M158.245 345.709C130.959 345.709 108.736 323.486 108.736 296.2C108.736 268.914 130.959 246.692 158.245 246.692C185.531 246.692 207.753 268.914 207.753 296.2C207.709 323.531 185.531 345.709 158.245 345.709ZM158.245 250.455C132.975 250.455 112.455 271.02 112.455 296.245C112.455 321.515 132.975 342.035 158.245 342.035C183.514 342.035 204.035 321.515 204.035 296.245C204.035 270.975 183.47 250.455 158.245 250.455Z" fill="#292524" fill-opacity="0.06"/>
</svg>
