<svg width="670" height="125" viewBox="0 0 670 125" fill="none" xmlns="http://www.w3.org/2000/svg">
<mask id="path-1-outside-1_6_28" maskUnits="userSpaceOnUse" x="-1" y="-2" width="672" height="128" fill="black">
<rect fill="white" x="-1" y="-2" width="672" height="128"/>
<path d="M0.808001 104V0.319992H25.256C33.704 0.319992 40.2747 1.47199 44.968 3.77599C49.7467 6.07999 53.1173 9.62133 55.08 14.4C57.128 19.1787 58.152 25.2373 58.152 32.576V70.464C58.152 77.9733 57.128 84.2453 55.08 89.28C53.1173 94.2293 49.7893 97.9413 45.096 100.416C40.488 102.805 34.1307 104 26.024 104H0.808001ZM19.752 90.816H25.512C29.864 90.816 32.9787 90.048 34.856 88.512C36.7333 86.976 37.8853 84.7573 38.312 81.856C38.7387 78.8693 38.952 75.2427 38.952 70.976V31.296C38.952 27.1147 38.6533 23.744 38.056 21.184C37.4587 18.624 36.2213 16.7467 34.344 15.552C32.4667 14.3573 29.4373 13.76 25.256 13.76H19.752V90.816ZM93.306 105.152C87.93 105.152 83.4927 104.171 79.994 102.208C76.4953 100.16 73.85 97.216 72.058 93.376C70.3513 89.536 69.498 84.8853 69.498 79.424V54.592C69.498 49.1307 70.3513 44.48 72.058 40.64C73.85 36.8 76.4953 33.8987 79.994 31.936C83.4927 29.888 87.93 28.864 93.306 28.864C98.682 28.864 103.119 29.888 106.618 31.936C110.202 33.8987 112.847 36.8 114.554 40.64C116.346 44.48 117.242 49.1307 117.242 54.592V79.424C117.242 84.8853 116.346 89.536 114.554 93.376C112.847 97.216 110.202 100.16 106.618 102.208C103.119 104.171 98.682 105.152 93.306 105.152ZM93.434 93.12C95.3967 93.12 96.8473 92.5653 97.786 91.456C98.7247 90.3467 99.322 88.8533 99.578 86.976C99.834 85.0133 99.962 82.88 99.962 80.576V53.44C99.962 51.136 99.834 49.0453 99.578 47.168C99.322 45.2907 98.7247 43.7973 97.786 42.688C96.8473 41.4933 95.3967 40.896 93.434 40.896C91.4713 40.896 90.0207 41.4933 89.082 42.688C88.1433 43.7973 87.5033 45.2907 87.162 47.168C86.906 49.0453 86.778 51.136 86.778 53.44V80.576C86.778 82.88 86.906 85.0133 87.162 86.976C87.5033 88.8533 88.1433 90.3467 89.082 91.456C90.0207 92.5653 91.4713 93.12 93.434 93.12ZM130.308 104V0.319992H160.772C167.001 0.319992 172.036 1.47199 175.876 3.77599C179.801 6.07999 182.66 9.45066 184.452 13.888C186.329 18.24 187.268 23.5307 187.268 29.76C187.268 36.5013 186.116 41.9627 183.812 46.144C181.508 50.24 178.265 53.2267 174.084 55.104C169.988 56.9813 165.124 57.92 159.492 57.92H149.252V104H130.308ZM149.252 44.608H156.42C159.833 44.608 162.479 44.1387 164.356 43.2C166.319 42.176 167.641 40.5973 168.324 38.464C169.092 36.2453 169.476 33.3013 169.476 29.632C169.476 25.8773 169.177 22.848 168.58 20.544C168.068 18.1547 166.873 16.4053 164.996 15.296C163.204 14.1867 160.345 13.632 156.42 13.632H149.252V44.608ZM197.168 124.096V111.552C200.155 111.552 202.587 111.381 204.464 111.04C206.341 110.699 207.707 110.101 208.56 109.248C209.413 108.395 209.84 107.2 209.84 105.664C209.84 104.555 209.541 102.805 208.944 100.416C208.432 98.0267 207.835 95.424 207.152 92.608L190.896 30.016H207.792L217.392 78.784L225.712 30.016H242.48L225.2 106.944C224.261 111.296 222.683 114.709 220.464 117.184C218.245 119.659 215.472 121.408 212.144 122.432C208.816 123.541 204.933 124.096 200.496 124.096H197.168ZM247.689 121.408L245.897 115.008C248.201 114.325 250.164 113.088 251.785 111.296C253.406 109.589 254.217 107.157 254.217 104H245.001V86.72H262.025V102.464C262.025 107.925 260.83 112.192 258.441 115.264C256.052 118.421 252.468 120.469 247.689 121.408Z"/>
<path d="M303.856 104V26.24H322.96C326.416 26.24 329.52 26.56 332.272 27.2C335.088 27.84 337.488 28.928 339.472 30.464C341.52 31.936 343.088 33.952 344.176 36.512C345.264 39.072 345.808 42.304 345.808 46.208C345.808 49.344 345.36 52.032 344.464 54.272C343.632 56.512 342.384 58.304 340.72 59.648C339.056 60.928 336.976 61.792 334.48 62.24C337.552 62.752 340.08 63.84 342.064 65.504C344.112 67.104 345.616 69.216 346.576 71.84C347.6 74.464 348.112 77.632 348.112 81.344C348.112 85.056 347.632 88.352 346.672 91.232C345.776 94.048 344.4 96.416 342.544 98.336C340.752 100.192 338.48 101.6 335.728 102.56C333.04 103.52 329.872 104 326.224 104H303.856ZM318.064 94.016H323.44C327.728 94.016 330.64 92.992 332.176 90.944C333.712 88.832 334.48 85.6 334.48 81.248C334.48 78.112 334.096 75.584 333.328 73.664C332.624 71.68 331.408 70.208 329.68 69.248C328.016 68.288 325.776 67.808 322.96 67.808H318.064V94.016ZM318.064 58.016H322.864C325.68 58.016 327.856 57.6 329.392 56.768C330.928 55.936 331.984 54.656 332.56 52.928C333.2 51.2 333.52 49.024 333.52 46.4C333.52 43.648 333.04 41.536 332.08 40.064C331.184 38.528 329.808 37.504 327.952 36.992C326.096 36.416 323.728 36.128 320.848 36.128H318.064V58.016ZM357.678 104V26.24H371.694V104H357.678ZM391.507 104V36.704H379.123V26.24H417.907V36.704H405.715V104H391.507ZM444.565 105.056C439.893 105.056 435.989 104.16 432.853 102.368C429.717 100.512 427.349 97.824 425.749 94.304C424.149 90.784 423.253 86.464 423.061 81.344L435.253 78.944C435.381 81.952 435.733 84.608 436.309 86.912C436.949 89.216 437.877 91.008 439.093 92.288C440.373 93.504 442.037 94.112 444.085 94.112C446.389 94.112 448.021 93.44 448.981 92.096C449.941 90.688 450.421 88.928 450.421 86.816C450.421 83.424 449.653 80.64 448.117 78.464C446.581 76.288 444.533 74.112 441.973 71.936L432.181 63.296C429.429 60.928 427.221 58.304 425.557 55.424C423.957 52.48 423.157 48.864 423.157 44.576C423.157 38.432 424.949 33.696 428.533 30.368C432.117 27.04 437.013 25.376 443.221 25.376C446.869 25.376 449.909 25.952 452.341 27.104C454.773 28.192 456.693 29.728 458.101 31.712C459.573 33.696 460.661 35.968 461.365 38.528C462.069 41.024 462.517 43.68 462.709 46.496L450.613 48.608C450.485 46.176 450.197 44 449.749 42.08C449.365 40.16 448.629 38.656 447.541 37.568C446.517 36.48 444.981 35.936 442.933 35.936C440.821 35.936 439.189 36.64 438.037 38.048C436.949 39.392 436.405 41.088 436.405 43.136C436.405 45.76 436.949 47.936 438.037 49.664C439.125 51.328 440.693 53.056 442.741 54.848L452.437 63.392C455.637 66.08 458.357 69.248 460.597 72.896C462.901 76.48 464.053 80.832 464.053 85.952C464.053 89.664 463.221 92.96 461.557 95.84C459.957 98.72 457.685 100.992 454.741 102.656C451.861 104.256 448.469 105.056 444.565 105.056ZM495.954 104V26.24H510.066V58.784H526.002V26.24H540.114V104H526.002V68.864H510.066V104H495.954ZM562.86 104V74.336L547.116 26.24H560.364L569.964 57.056L578.988 26.24H591.948L576.396 74.336V104H562.86ZM598.794 104V26.24H617.13C623.466 26.24 628.394 27.104 631.914 28.832C635.498 30.56 638.026 33.216 639.498 36.8C641.034 40.384 641.802 44.928 641.802 50.432V78.848C641.802 84.48 641.034 89.184 639.498 92.96C638.026 96.672 635.53 99.456 632.01 101.312C628.554 103.104 623.786 104 617.706 104H598.794ZM613.002 94.112H617.322C620.586 94.112 622.922 93.536 624.33 92.384C625.738 91.232 626.602 89.568 626.922 87.392C627.242 85.152 627.402 82.432 627.402 79.232V49.472C627.402 46.336 627.178 43.808 626.73 41.888C626.282 39.968 625.354 38.56 623.946 37.664C622.538 36.768 620.266 36.32 617.13 36.32H613.002V94.112ZM652.391 104V86.464H669.287V104H652.391Z"/>
</mask>
<path d="M0.808001 104V0.319992H25.256C33.704 0.319992 40.2747 1.47199 44.968 3.77599C49.7467 6.07999 53.1173 9.62133 55.08 14.4C57.128 19.1787 58.152 25.2373 58.152 32.576V70.464C58.152 77.9733 57.128 84.2453 55.08 89.28C53.1173 94.2293 49.7893 97.9413 45.096 100.416C40.488 102.805 34.1307 104 26.024 104H0.808001ZM19.752 90.816H25.512C29.864 90.816 32.9787 90.048 34.856 88.512C36.7333 86.976 37.8853 84.7573 38.312 81.856C38.7387 78.8693 38.952 75.2427 38.952 70.976V31.296C38.952 27.1147 38.6533 23.744 38.056 21.184C37.4587 18.624 36.2213 16.7467 34.344 15.552C32.4667 14.3573 29.4373 13.76 25.256 13.76H19.752V90.816ZM93.306 105.152C87.93 105.152 83.4927 104.171 79.994 102.208C76.4953 100.16 73.85 97.216 72.058 93.376C70.3513 89.536 69.498 84.8853 69.498 79.424V54.592C69.498 49.1307 70.3513 44.48 72.058 40.64C73.85 36.8 76.4953 33.8987 79.994 31.936C83.4927 29.888 87.93 28.864 93.306 28.864C98.682 28.864 103.119 29.888 106.618 31.936C110.202 33.8987 112.847 36.8 114.554 40.64C116.346 44.48 117.242 49.1307 117.242 54.592V79.424C117.242 84.8853 116.346 89.536 114.554 93.376C112.847 97.216 110.202 100.16 106.618 102.208C103.119 104.171 98.682 105.152 93.306 105.152ZM93.434 93.12C95.3967 93.12 96.8473 92.5653 97.786 91.456C98.7247 90.3467 99.322 88.8533 99.578 86.976C99.834 85.0133 99.962 82.88 99.962 80.576V53.44C99.962 51.136 99.834 49.0453 99.578 47.168C99.322 45.2907 98.7247 43.7973 97.786 42.688C96.8473 41.4933 95.3967 40.896 93.434 40.896C91.4713 40.896 90.0207 41.4933 89.082 42.688C88.1433 43.7973 87.5033 45.2907 87.162 47.168C86.906 49.0453 86.778 51.136 86.778 53.44V80.576C86.778 82.88 86.906 85.0133 87.162 86.976C87.5033 88.8533 88.1433 90.3467 89.082 91.456C90.0207 92.5653 91.4713 93.12 93.434 93.12ZM130.308 104V0.319992H160.772C167.001 0.319992 172.036 1.47199 175.876 3.77599C179.801 6.07999 182.66 9.45066 184.452 13.888C186.329 18.24 187.268 23.5307 187.268 29.76C187.268 36.5013 186.116 41.9627 183.812 46.144C181.508 50.24 178.265 53.2267 174.084 55.104C169.988 56.9813 165.124 57.92 159.492 57.92H149.252V104H130.308ZM149.252 44.608H156.42C159.833 44.608 162.479 44.1387 164.356 43.2C166.319 42.176 167.641 40.5973 168.324 38.464C169.092 36.2453 169.476 33.3013 169.476 29.632C169.476 25.8773 169.177 22.848 168.58 20.544C168.068 18.1547 166.873 16.4053 164.996 15.296C163.204 14.1867 160.345 13.632 156.42 13.632H149.252V44.608ZM197.168 124.096V111.552C200.155 111.552 202.587 111.381 204.464 111.04C206.341 110.699 207.707 110.101 208.56 109.248C209.413 108.395 209.84 107.2 209.84 105.664C209.84 104.555 209.541 102.805 208.944 100.416C208.432 98.0267 207.835 95.424 207.152 92.608L190.896 30.016H207.792L217.392 78.784L225.712 30.016H242.48L225.2 106.944C224.261 111.296 222.683 114.709 220.464 117.184C218.245 119.659 215.472 121.408 212.144 122.432C208.816 123.541 204.933 124.096 200.496 124.096H197.168ZM247.689 121.408L245.897 115.008C248.201 114.325 250.164 113.088 251.785 111.296C253.406 109.589 254.217 107.157 254.217 104H245.001V86.72H262.025V102.464C262.025 107.925 260.83 112.192 258.441 115.264C256.052 118.421 252.468 120.469 247.689 121.408Z" fill="black"/>
<path d="M0.808001 104H-0.691999V105.5H0.808001V104ZM0.808001 0.319992V-1.18001H-0.691999V0.319992H0.808001ZM44.968 3.77599L44.307 5.12253L44.3166 5.12715L44.968 3.77599ZM55.08 14.4L53.6925 14.9699L53.6968 14.9804L53.7013 14.9909L55.08 14.4ZM55.08 89.28L53.6905 88.7148L53.6856 88.7271L55.08 89.28ZM45.096 100.416L45.7865 101.748L45.7956 101.743L45.096 100.416ZM19.752 90.816H18.252V92.316H19.752V90.816ZM34.856 88.512L35.8059 89.6729L34.856 88.512ZM38.312 81.856L39.7961 82.0742L39.7969 82.0681L38.312 81.856ZM38.056 21.184L36.5952 21.5248L38.056 21.184ZM34.344 15.552L33.5387 16.8175L34.344 15.552ZM19.752 13.76V12.26H18.252V13.76H19.752ZM2.308 104V0.319992H-0.691999V104H2.308ZM0.808001 1.81999H25.256V-1.18001H0.808001V1.81999ZM25.256 1.81999C33.6001 1.81999 39.9081 2.96306 44.307 5.12249L45.629 2.42949C40.6412 -0.0190773 33.8079 -1.18001 25.256 -1.18001V1.81999ZM44.3166 5.12715C48.7718 7.2752 51.8745 10.5435 53.6925 14.9699L56.4675 13.8301C54.3602 8.69913 50.7216 4.88479 45.6194 2.42484L44.3166 5.12715ZM53.7013 14.9909C55.6435 19.5227 56.652 25.3629 56.652 32.576H59.652C59.652 25.1118 58.6125 18.8346 56.4587 13.8091L53.7013 14.9909ZM56.652 32.576V70.464H59.652V32.576H56.652ZM56.652 70.464C56.652 77.8485 55.6434 83.914 53.6906 88.7148L56.4694 89.8452C58.6126 84.5766 59.652 78.0982 59.652 70.464H56.652ZM53.6856 88.7271C51.8543 93.3451 48.772 96.782 44.3964 99.0891L45.7956 101.743C50.8066 99.1007 54.3803 95.1136 56.4744 89.8329L53.6856 88.7271ZM44.4055 99.0844C40.0978 101.318 34.0123 102.5 26.024 102.5V105.5C34.249 105.5 40.8782 104.293 45.7865 101.748L44.4055 99.0844ZM26.024 102.5H0.808001V105.5H26.024V102.5ZM19.752 92.316H25.512V89.316H19.752V92.316ZM25.512 92.316C29.9655 92.316 33.5181 91.5447 35.8059 89.6729L33.9061 87.3511C32.4392 88.5513 29.7625 89.316 25.512 89.316V92.316ZM35.8059 89.6729C38.0304 87.8529 39.327 85.264 39.796 82.0742L36.828 81.6378C36.4437 84.2507 35.4363 86.0991 33.9061 87.3511L35.8059 89.6729ZM39.7969 82.0681C40.2368 78.9891 40.452 75.2871 40.452 70.976H37.452C37.452 75.1982 37.2405 78.7496 36.8271 81.6439L39.7969 82.0681ZM40.452 70.976V31.296H37.452V70.976H40.452ZM40.452 31.296C40.452 27.0588 40.1508 23.5605 39.5168 20.8432L36.5952 21.5248C37.1559 23.9275 37.452 27.1706 37.452 31.296H40.452ZM39.5168 20.8432C38.8476 17.9754 37.4169 15.7295 35.1493 14.2865L33.5387 16.8175C35.0258 17.7638 36.0697 19.2726 36.5952 21.5248L39.5168 20.8432ZM35.1493 14.2865C32.8994 12.8547 29.51 12.26 25.256 12.26V15.26C29.3647 15.26 32.034 15.8599 33.5387 16.8175L35.1493 14.2865ZM25.256 12.26H19.752V15.26H25.256V12.26ZM18.252 13.76V90.816H21.252V13.76H18.252ZM79.994 102.208L79.2362 103.503L79.2481 103.509L79.2601 103.516L79.994 102.208ZM72.058 93.376L70.6873 93.9852L70.6929 93.9978L70.6987 94.0103L72.058 93.376ZM72.058 40.64L70.6987 40.0057L70.6929 40.0182L70.6873 40.0308L72.058 40.64ZM79.994 31.936L80.7279 33.2442L80.7399 33.2375L80.7518 33.2305L79.994 31.936ZM106.618 31.936L105.86 33.2305L105.879 33.2413L105.898 33.2516L106.618 31.936ZM114.554 40.64L113.183 41.2492L113.189 41.2618L113.195 41.2743L114.554 40.64ZM114.554 93.376L113.195 92.7417L113.189 92.7542L113.183 92.7668L114.554 93.376ZM106.618 102.208L107.352 103.516L107.362 103.51L106.618 102.208ZM97.786 91.456L98.9311 92.4249L97.786 91.456ZM99.578 86.976L101.064 87.1787L101.065 87.17L99.578 86.976ZM99.578 47.168L101.064 46.9653L99.578 47.168ZM97.786 42.688L96.6065 43.6147L96.6233 43.6361L96.6409 43.6569L97.786 42.688ZM89.082 42.688L90.2271 43.6569L90.2447 43.6361L90.2615 43.6147L89.082 42.688ZM87.162 47.168L85.6862 46.8997L85.6802 46.9324L85.6758 46.9653L87.162 47.168ZM87.162 86.976L85.6746 87.17L85.6795 87.2073L85.6862 87.2443L87.162 86.976ZM89.082 91.456L87.9369 92.4249L89.082 91.456ZM93.306 103.652C88.1029 103.652 83.9389 102.701 80.7279 100.9L79.2601 103.516C83.0464 105.64 87.7571 106.652 93.306 106.652V103.652ZM80.7518 100.913C77.5283 99.0266 75.0866 96.3189 73.4173 92.7417L70.6987 94.0103C72.6134 98.1131 75.4623 101.293 79.2362 103.503L80.7518 100.913ZM73.4287 92.7668C71.8288 89.1669 70.998 84.7357 70.998 79.424H67.998C67.998 85.035 68.8739 89.9051 70.6873 93.9852L73.4287 92.7668ZM70.998 79.424V54.592H67.998V79.424H70.998ZM70.998 54.592C70.998 49.2803 71.8288 44.8491 73.4287 41.2492L70.6873 40.0308C68.8739 44.1109 67.998 48.981 67.998 54.592H70.998ZM73.4173 41.2743C75.0844 37.7019 77.519 35.0443 80.7279 33.2442L79.2601 30.6278C75.4717 32.753 72.6156 35.8981 70.6987 40.0057L73.4173 41.2743ZM80.7518 33.2305C83.9574 31.3541 88.1121 30.364 93.306 30.364V27.364C87.7479 27.364 83.0279 28.4219 79.2362 30.6415L80.7518 33.2305ZM93.306 30.364C98.4999 30.364 102.655 31.3541 105.86 33.2305L107.376 30.6415C103.584 28.4219 98.8641 27.364 93.306 27.364V30.364ZM105.898 33.2516C109.185 35.0517 111.606 37.7004 113.183 41.2492L115.925 40.0308C114.089 35.8996 111.219 32.7457 107.338 30.6204L105.898 33.2516ZM113.195 41.2743C114.871 44.867 115.742 49.2889 115.742 54.592H118.742C118.742 48.9724 117.821 44.093 115.913 40.0057L113.195 41.2743ZM115.742 54.592V79.424H118.742V54.592H115.742ZM115.742 79.424C115.742 84.7271 114.871 89.149 113.195 92.7417L115.913 94.0103C117.821 89.923 118.742 85.0436 118.742 79.424H115.742ZM113.183 92.7668C111.604 96.3206 109.175 99.0191 105.874 100.906L107.362 103.51C111.229 101.301 114.091 98.1114 115.925 93.9852L113.183 92.7668ZM105.884 100.9C102.673 102.701 98.5091 103.652 93.306 103.652V106.652C98.8549 106.652 103.566 105.64 107.352 103.516L105.884 100.9ZM93.434 94.62C95.6744 94.62 97.6164 93.9786 98.9311 92.4249L96.6409 90.4871C96.0782 91.1521 95.1189 91.62 93.434 91.62V94.62ZM98.9311 92.4249C100.102 91.0408 100.781 89.2542 101.064 87.1787L98.0918 86.7733C97.8628 88.4524 97.3471 89.6525 96.6409 90.4871L98.9311 92.4249ZM101.065 87.17C101.331 85.1336 101.462 82.9346 101.462 80.576H98.462C98.462 82.8254 98.337 84.8931 98.0906 86.782L101.065 87.17ZM101.462 80.576V53.44H98.462V80.576H101.462ZM101.462 53.44C101.462 51.0821 101.331 48.9223 101.064 46.9653L98.0918 47.3707C98.3369 49.1683 98.462 51.1899 98.462 53.44H101.462ZM101.064 46.9653C100.781 44.8898 100.102 43.1032 98.9311 41.7191L96.6409 43.6569C97.3471 44.4915 97.8628 45.6916 98.0918 47.3707L101.064 46.9653ZM98.9655 41.7613C97.663 40.1035 95.7109 39.396 93.434 39.396V42.396C95.0825 42.396 96.0317 42.8831 96.6065 43.6147L98.9655 41.7613ZM93.434 39.396C91.1571 39.396 89.205 40.1035 87.9025 41.7613L90.2615 43.6147C90.8363 42.8831 91.7855 42.396 93.434 42.396V39.396ZM87.9369 41.7191C86.7835 43.0822 86.0602 44.8425 85.6862 46.8997L88.6378 47.4363C88.9464 45.7388 89.5032 44.5124 90.2271 43.6569L87.9369 41.7191ZM85.6758 46.9653C85.4089 48.9223 85.278 51.0821 85.278 53.44H88.278C88.278 51.1899 88.4031 49.1683 88.6482 47.3707L85.6758 46.9653ZM85.278 53.44V80.576H88.278V53.44H85.278ZM85.278 80.576C85.278 82.9346 85.409 85.1336 85.6746 87.17L88.6494 86.782C88.403 84.8931 88.278 82.8254 88.278 80.576H85.278ZM85.6862 87.2443C86.0602 89.3015 86.7835 91.0618 87.9369 92.4249L90.2271 90.4871C89.5032 89.6316 88.9464 88.4052 88.6378 86.7077L85.6862 87.2443ZM87.9369 92.4249C89.2516 93.9786 91.1936 94.62 93.434 94.62V91.62C91.7491 91.62 90.7898 91.1521 90.2271 90.4871L87.9369 92.4249ZM130.308 104H128.808V105.5H130.308V104ZM130.308 0.319992V-1.18001H128.808V0.319992H130.308ZM175.876 3.77599L175.104 5.06223L175.11 5.06596L175.117 5.06962L175.876 3.77599ZM184.452 13.888L183.061 14.4497L183.068 14.466L183.075 14.4821L184.452 13.888ZM183.812 46.144L185.119 46.8794L185.126 46.8679L183.812 46.144ZM174.084 55.104L173.47 53.7355L173.459 53.7404L174.084 55.104ZM149.252 57.92V56.42H147.752V57.92H149.252ZM149.252 104V105.5H150.752V104H149.252ZM149.252 44.608H147.752V46.108H149.252V44.608ZM164.356 43.2L165.027 44.5416L165.038 44.5359L165.05 44.5299L164.356 43.2ZM168.324 38.464L166.907 37.9733L166.901 37.99L166.895 38.0068L168.324 38.464ZM168.58 20.544L167.113 20.8583L167.12 20.8895L167.128 20.9204L168.58 20.544ZM164.996 15.296L164.206 16.5714L164.22 16.5795L164.233 16.5874L164.996 15.296ZM149.252 13.632V12.132H147.752V13.632H149.252ZM131.808 104V0.319992H128.808V104H131.808ZM130.308 1.81999H160.772V-1.18001H130.308V1.81999ZM160.772 1.81999C166.831 1.81999 171.571 2.94247 175.104 5.06223L176.648 2.48975C172.501 0.00151062 167.172 -1.18001 160.772 -1.18001V1.81999ZM175.117 5.06962C178.741 7.19702 181.386 10.3024 183.061 14.4497L185.843 13.3263C183.934 8.5989 180.862 4.96297 176.635 2.48237L175.117 5.06962ZM183.075 14.4821C184.85 18.5975 185.768 23.6739 185.768 29.76H188.768C188.768 23.3875 187.809 17.8825 185.829 13.2939L183.075 14.4821ZM185.768 29.76C185.768 36.3466 184.64 41.5331 182.498 45.4201L185.126 46.8679C187.592 42.3922 188.768 36.6561 188.768 29.76H185.768ZM182.505 45.4086C180.354 49.2325 177.35 51.9932 173.47 53.7356L174.698 56.4724C179.18 54.4601 182.662 51.2475 185.119 46.8794L182.505 45.4086ZM173.459 53.7404C169.602 55.5083 164.961 56.42 159.492 56.42V59.42C165.287 59.42 170.374 58.4543 174.709 56.4676L173.459 53.7404ZM159.492 56.42H149.252V59.42H159.492V56.42ZM147.752 57.92V104H150.752V57.92H147.752ZM149.252 102.5H130.308V105.5H149.252V102.5ZM149.252 46.108H156.42V43.108H149.252V46.108ZM156.42 46.108C159.937 46.108 162.85 45.6299 165.027 44.5416L163.685 41.8584C162.107 42.6474 159.73 43.108 156.42 43.108V46.108ZM165.05 44.5299C167.367 43.3207 168.951 41.4258 169.753 38.9212L166.895 38.0068C166.332 39.7688 165.27 41.0313 163.662 41.8701L165.05 44.5299ZM169.741 38.9547C170.586 36.5152 170.976 33.3853 170.976 29.632H167.976C167.976 33.2174 167.598 35.9755 166.907 37.9733L169.741 38.9547ZM170.976 29.632C170.976 25.8144 170.674 22.644 170.032 20.1676L167.128 20.9204C167.681 23.052 167.976 25.9403 167.976 29.632H170.976ZM170.047 20.2297C169.459 17.4854 168.043 15.354 165.759 14.0046L164.233 16.5874C165.704 17.4567 166.677 18.8239 167.113 20.8583L170.047 20.2297ZM165.786 14.0206C163.628 12.685 160.42 12.132 156.42 12.132V15.132C160.271 15.132 162.78 15.6883 164.206 16.5714L165.786 14.0206ZM156.42 12.132H149.252V15.132H156.42V12.132ZM147.752 13.632V44.608H150.752V13.632H147.752ZM197.168 124.096H195.668V125.596H197.168V124.096ZM197.168 111.552V110.052H195.668V111.552H197.168ZM208.56 109.248L209.621 110.309L208.56 109.248ZM208.944 100.416L207.477 100.73L207.483 100.755L207.489 100.78L208.944 100.416ZM207.152 92.608L208.61 92.2546L208.607 92.2428L208.604 92.2309L207.152 92.608ZM190.896 30.016V28.516H188.957L189.444 30.3931L190.896 30.016ZM207.792 30.016L209.264 29.7263L209.026 28.516H207.792V30.016ZM217.392 78.784L215.92 79.0737L218.871 79.0363L217.392 78.784ZM225.712 30.016V28.516H224.446L224.233 29.7637L225.712 30.016ZM242.48 30.016L243.944 30.3447L244.354 28.516H242.48V30.016ZM225.2 106.944L223.736 106.615L223.734 106.628L225.2 106.944ZM220.464 117.184L221.581 118.185L220.464 117.184ZM212.144 122.432L211.703 120.998L211.686 121.003L211.67 121.009L212.144 122.432ZM198.668 124.096V111.552H195.668V124.096H198.668ZM197.168 113.052C200.2 113.052 202.732 112.88 204.732 112.516L204.196 109.564C202.442 109.883 200.109 110.052 197.168 110.052V113.052ZM204.732 112.516C206.749 112.149 208.459 111.47 209.621 110.309L207.499 108.187C206.954 108.733 205.934 109.248 204.196 109.564L204.732 112.516ZM209.621 110.309C210.827 109.103 211.34 107.484 211.34 105.664H208.34C208.34 106.916 208 107.687 207.499 108.187L209.621 110.309ZM211.34 105.664C211.34 104.356 210.999 102.452 210.399 100.052L207.489 100.78C208.083 103.158 208.34 104.753 208.34 105.664H211.34ZM210.411 100.102C209.895 97.6972 209.295 95.0813 208.61 92.2546L205.694 92.9614C206.374 95.7667 206.969 98.3562 207.477 100.73L210.411 100.102ZM208.604 92.2309L192.348 29.6389L189.444 30.3931L205.7 92.9851L208.604 92.2309ZM190.896 31.516H207.792V28.516H190.896V31.516ZM206.32 30.3057L215.92 79.0737L218.864 78.4943L209.264 29.7263L206.32 30.3057ZM218.871 79.0363L227.191 30.2683L224.233 29.7637L215.913 78.5317L218.871 79.0363ZM225.712 31.516H242.48V28.516H225.712V31.516ZM241.016 29.6872L223.736 106.615L226.664 107.273L243.944 30.3447L241.016 29.6872ZM223.734 106.628C222.832 110.808 221.343 113.957 219.347 116.183L221.581 118.185C224.023 115.462 225.691 111.784 226.666 107.26L223.734 106.628ZM219.347 116.183C217.319 118.445 214.784 120.05 211.703 120.998L212.585 123.866C216.16 122.766 219.172 120.873 221.581 118.185L219.347 116.183ZM211.67 121.009C208.529 122.056 204.813 122.596 200.496 122.596V125.596C205.054 125.596 209.103 125.027 212.618 123.855L211.67 121.009ZM200.496 122.596H197.168V125.596H200.496V122.596ZM247.689 121.408L246.245 121.812L246.618 123.147L247.978 122.88L247.689 121.408ZM245.897 115.008L245.471 113.57L244.054 113.99L244.453 115.412L245.897 115.008ZM251.785 111.296L250.698 110.263L250.685 110.276L250.673 110.29L251.785 111.296ZM254.217 104H255.717V102.5H254.217V104ZM245.001 104H243.501V105.5H245.001V104ZM245.001 86.72V85.22H243.501V86.72H245.001ZM262.025 86.72H263.525V85.22H262.025V86.72ZM258.441 115.264L257.257 114.343L257.251 114.351L257.245 114.359L258.441 115.264ZM249.133 121.004L247.341 114.604L244.453 115.412L246.245 121.812L249.133 121.004ZM246.323 116.446C248.893 115.685 251.092 114.297 252.897 112.302L250.673 110.29C249.235 111.879 247.509 112.966 245.471 113.57L246.323 116.446ZM252.872 112.329C254.839 110.26 255.717 107.408 255.717 104H252.717C252.717 106.907 251.974 108.919 250.698 110.263L252.872 112.329ZM254.217 102.5H245.001V105.5H254.217V102.5ZM246.501 104V86.72H243.501V104H246.501ZM245.001 88.22H262.025V85.22H245.001V88.22ZM260.525 86.72V102.464H263.525V86.72H260.525ZM260.525 102.464C260.525 107.723 259.373 111.622 257.257 114.343L259.625 116.185C262.288 112.762 263.525 108.127 263.525 102.464H260.525ZM257.245 114.359C255.126 117.159 251.904 119.051 247.4 119.936L247.978 122.88C253.032 121.887 256.977 119.684 259.637 116.169L257.245 114.359ZM303.856 104H302.356V105.5H303.856V104ZM303.856 26.24V24.74H302.356V26.24H303.856ZM332.272 27.2L331.932 28.661L331.94 28.6627L332.272 27.2ZM339.472 30.464L338.554 31.6501L338.575 31.6664L338.597 31.682L339.472 30.464ZM344.176 36.512L345.556 35.9253L344.176 36.512ZM344.464 54.272L343.071 53.7149L343.064 53.7322L343.058 53.7497L344.464 54.272ZM340.72 59.648L341.635 60.8369L341.649 60.8261L341.663 60.8149L340.72 59.648ZM334.48 62.24L334.215 60.7636L334.233 63.7196L334.48 62.24ZM342.064 65.504L341.1 66.6533L341.12 66.67L341.141 66.686L342.064 65.504ZM346.576 71.84L345.167 72.3554L345.173 72.3704L345.179 72.3853L346.576 71.84ZM346.672 91.232L345.249 90.7577L345.246 90.7674L345.243 90.7772L346.672 91.232ZM342.544 98.336L341.466 97.2935L341.465 97.2941L342.544 98.336ZM335.728 102.56L335.234 101.144L335.224 101.147L335.728 102.56ZM318.064 94.016H316.564V95.516H318.064V94.016ZM332.176 90.944L333.376 91.844L333.383 91.8352L333.389 91.8263L332.176 90.944ZM333.328 73.664L331.914 74.1656L331.924 74.1936L331.935 74.2211L333.328 73.664ZM329.68 69.248L328.93 70.5473L328.941 70.5533L328.952 70.5592L329.68 69.248ZM318.064 67.808V66.308H316.564V67.808H318.064ZM318.064 58.016H316.564V59.516H318.064V58.016ZM329.392 56.768L330.106 58.0869L329.392 56.768ZM332.56 52.928L331.153 52.407L331.145 52.4302L331.137 52.4537L332.56 52.928ZM332.08 40.064L330.784 40.8198L330.803 40.8521L330.824 40.8834L332.08 40.064ZM327.952 36.992L327.507 38.4246L327.53 38.4317L327.553 38.438L327.952 36.992ZM318.064 36.128V34.628H316.564V36.128H318.064ZM305.356 104V26.24H302.356V104H305.356ZM303.856 27.74H322.96V24.74H303.856V27.74ZM322.96 27.74C326.326 27.74 329.313 28.0519 331.932 28.661L332.612 25.739C329.727 25.0681 326.506 24.74 322.96 24.74V27.74ZM331.94 28.6627C334.575 29.2616 336.767 30.2666 338.554 31.6501L340.39 29.2779C338.209 27.5894 335.601 26.4184 332.604 25.7373L331.94 28.6627ZM338.597 31.682C340.399 32.9776 341.803 34.7646 342.796 37.0987L345.556 35.9253C344.372 33.1394 342.641 30.8944 340.347 29.246L338.597 31.682ZM342.796 37.0987C343.78 39.4143 344.308 42.43 344.308 46.208H347.308C347.308 42.178 346.748 38.7296 345.556 35.9253L342.796 37.0987ZM344.308 46.208C344.308 49.2076 343.879 51.6965 343.071 53.7149L345.857 54.8291C346.841 52.3675 347.308 49.4804 347.308 46.208H344.308ZM343.058 53.7497C342.308 55.7674 341.208 57.3257 339.777 58.4811L341.663 60.8149C343.56 59.2823 344.956 57.2566 345.87 54.7943L343.058 53.7497ZM339.805 58.4591C338.367 59.5652 336.523 60.3493 334.215 60.7636L334.745 63.7164C337.429 63.2347 339.745 62.2908 341.635 60.8369L339.805 58.4591ZM334.233 63.7196C337.095 64.1965 339.359 65.1934 341.1 66.6533L343.028 64.3547C340.801 62.4866 338.009 61.3075 334.727 60.7604L334.233 63.7196ZM341.141 66.686C342.951 68.1005 344.296 69.974 345.167 72.3554L347.985 71.3246C346.936 68.458 345.273 66.1075 342.987 64.322L341.141 66.686ZM345.179 72.3853C346.117 74.7899 346.612 77.7625 346.612 81.344H349.612C349.612 77.5015 349.083 74.1381 347.973 71.2947L345.179 72.3853ZM346.612 81.344C346.612 84.9294 346.148 88.0603 345.249 90.7577L348.095 91.7063C349.116 88.6437 349.612 85.1826 349.612 81.344H346.612ZM345.243 90.7772C344.409 93.3967 343.144 95.5568 341.466 97.2935L343.622 99.3785C345.656 97.2752 347.143 94.6993 348.101 91.6868L345.243 90.7772ZM341.465 97.2941C339.856 98.9605 337.793 100.251 335.234 101.144L336.222 103.976C339.167 102.949 341.648 101.424 343.623 99.3779L341.465 97.2941ZM335.224 101.147C332.735 102.036 329.746 102.5 326.224 102.5V105.5C329.998 105.5 333.345 105.004 336.233 103.973L335.224 101.147ZM326.224 102.5H303.856V105.5H326.224V102.5ZM318.064 95.516H323.44V92.516H318.064V95.516ZM323.44 95.516C327.885 95.516 331.41 94.4655 333.376 91.844L330.976 90.044C329.87 91.5185 327.571 92.516 323.44 92.516V95.516ZM333.389 91.8263C335.199 89.3373 335.98 85.7254 335.98 81.248H332.98C332.98 85.4746 332.225 88.3267 330.963 90.0617L333.389 91.8263ZM335.98 81.248C335.98 78.0099 335.586 75.2711 334.721 73.1069L331.935 74.2211C332.606 75.8969 332.98 78.2141 332.98 81.248H335.98ZM334.742 73.1624C333.924 70.8584 332.478 69.0863 330.408 67.9368L328.952 70.5592C330.338 71.3297 331.324 72.5016 331.914 74.1656L334.742 73.1624ZM330.43 67.9487C328.456 66.8099 325.925 66.308 322.96 66.308V69.308C325.627 69.308 327.576 69.7661 328.93 70.5473L330.43 67.9487ZM322.96 66.308H318.064V69.308H322.96V66.308ZM316.564 67.808V94.016H319.564V67.808H316.564ZM318.064 59.516H322.864V56.516H318.064V59.516ZM322.864 59.516C325.793 59.516 328.256 59.0892 330.106 58.0869L328.678 55.4491C327.456 56.1108 325.567 56.516 322.864 56.516V59.516ZM330.106 58.0869C331.993 57.0652 333.292 55.4746 333.983 53.4023L331.137 52.4537C330.676 53.8374 329.863 54.8068 328.678 55.4491L330.106 58.0869ZM333.967 53.449C334.689 51.4997 335.02 49.1326 335.02 46.4H332.02C332.02 48.9154 331.711 50.9003 331.153 52.407L333.967 53.449ZM335.02 46.4C335.02 43.5086 334.522 41.0621 333.336 39.2446L330.824 40.8834C331.558 42.0099 332.02 43.7874 332.02 46.4H335.02ZM333.376 39.3082C332.265 37.4043 330.55 36.1527 328.351 35.546L327.553 38.438C329.066 38.8553 330.103 39.6517 330.784 40.8198L333.376 39.3082ZM328.397 35.5594C326.345 34.9228 323.813 34.628 320.848 34.628V37.628C323.643 37.628 325.847 37.9092 327.507 38.4246L328.397 35.5594ZM320.848 34.628H318.064V37.628H320.848V34.628ZM316.564 36.128V58.016H319.564V36.128H316.564ZM357.677 104H356.177V105.5H357.677V104ZM357.677 26.24V24.74H356.177V26.24H357.677ZM371.694 26.24H373.194V24.74H371.694V26.24ZM371.694 104V105.5H373.194V104H371.694ZM359.177 104V26.24H356.177V104H359.177ZM357.677 27.74H371.694V24.74H357.677V27.74ZM370.194 26.24V104H373.194V26.24H370.194ZM371.694 102.5H357.677V105.5H371.694V102.5ZM391.507 104H390.007V105.5H391.507V104ZM391.507 36.704H393.007V35.204H391.507V36.704ZM379.123 36.704H377.623V38.204H379.123V36.704ZM379.123 26.24V24.74H377.623V26.24H379.123ZM417.907 26.24H419.407V24.74H417.907V26.24ZM417.907 36.704V38.204H419.407V36.704H417.907ZM405.715 36.704V35.204H404.215V36.704H405.715ZM405.715 104V105.5H407.215V104H405.715ZM393.007 104V36.704H390.007V104H393.007ZM391.507 35.204H379.123V38.204H391.507V35.204ZM380.623 36.704V26.24H377.623V36.704H380.623ZM379.123 27.74H417.907V24.74H379.123V27.74ZM416.407 26.24V36.704H419.407V26.24H416.407ZM417.907 35.204H405.715V38.204H417.907V35.204ZM404.215 36.704V104H407.215V36.704H404.215ZM405.715 102.5H391.507V105.5H405.715V102.5ZM432.853 102.368L432.089 103.659L432.099 103.665L432.109 103.67L432.853 102.368ZM425.749 94.304L427.115 93.6833L425.749 94.304ZM423.061 81.344L422.771 79.8722L421.514 80.1197L421.562 81.4002L423.061 81.344ZM435.253 78.944L436.752 78.8802L436.677 77.1348L434.963 77.4722L435.253 78.944ZM436.309 86.912L434.854 87.2758L434.859 87.2947L434.864 87.3135L436.309 86.912ZM439.093 92.288L438.005 93.3211L438.032 93.349L438.06 93.3755L439.093 92.288ZM448.981 92.096L450.202 92.9679L450.211 92.9545L450.22 92.941L448.981 92.096ZM448.117 78.464L446.892 79.329L448.117 78.464ZM441.973 71.936L440.981 73.0608L440.991 73.0699L441.002 73.0789L441.973 71.936ZM432.181 63.296L433.173 62.1712L433.166 62.1651L433.159 62.159L432.181 63.296ZM425.557 55.424L424.239 56.1403L424.248 56.1575L424.258 56.1744L425.557 55.424ZM428.533 30.368L429.554 31.4672L428.533 30.368ZM452.341 27.104L451.699 28.4596L451.714 28.4666L451.728 28.4732L452.341 27.104ZM458.101 31.712L456.878 32.5801L456.887 32.593L456.896 32.6058L458.101 31.712ZM461.365 38.528L459.919 38.9257L459.921 38.9352L461.365 38.528ZM462.709 46.496L462.967 47.9736L464.297 47.7413L464.206 46.394L462.709 46.496ZM450.613 48.608L449.115 48.6868L449.204 50.3767L450.871 50.0856L450.613 48.608ZM449.749 42.08L448.278 42.3742L448.283 42.3976L448.288 42.4208L449.749 42.08ZM447.541 37.568L446.449 38.596L446.464 38.6126L446.48 38.6287L447.541 37.568ZM438.037 38.048L436.876 37.0981L436.871 37.1042L438.037 38.048ZM438.037 49.664L436.768 50.4632L436.775 50.4741L436.782 50.4849L438.037 49.664ZM442.741 54.848L443.733 53.7226L443.729 53.7191L442.741 54.848ZM452.437 63.392L451.445 64.5174L451.459 64.5291L451.472 64.5406L452.437 63.392ZM460.597 72.896L459.319 73.6809L459.327 73.6941L459.335 73.7071L460.597 72.896ZM461.557 95.84L460.258 95.0896L460.252 95.1005L460.246 95.1115L461.557 95.84ZM454.741 102.656L455.469 103.967L455.479 103.962L454.741 102.656ZM444.565 103.556C440.079 103.556 436.449 102.695 433.597 101.066L432.109 103.67C435.529 105.625 439.707 106.556 444.565 106.556V103.556ZM433.617 101.077C430.762 99.3874 428.596 96.9416 427.115 93.6833L424.383 94.9247C426.102 98.7064 428.672 101.637 432.089 103.659L433.617 101.077ZM427.115 93.6833C425.617 90.3885 424.747 86.2728 424.56 81.2878L421.562 81.4002C421.759 86.6552 422.681 91.1795 424.383 94.9247L427.115 93.6833ZM423.351 82.8158L435.543 80.4158L434.963 77.4722L422.771 79.8722L423.351 82.8158ZM433.754 79.0078C433.886 82.0915 434.248 84.8515 434.854 87.2758L437.764 86.5482C437.218 84.3645 436.876 81.8125 436.752 78.8802L433.754 79.0078ZM434.864 87.3135C435.547 89.774 436.571 91.8112 438.005 93.3211L440.181 91.2549C439.183 90.2048 438.351 88.658 437.754 86.5105L434.864 87.3135ZM438.06 93.3755C439.663 94.8986 441.719 95.612 444.085 95.612V92.612C442.355 92.612 441.083 92.1094 440.126 91.2005L438.06 93.3755ZM444.085 95.612C446.668 95.612 448.859 94.8481 450.202 92.9679L447.76 91.2241C447.183 92.0319 446.11 92.612 444.085 92.612V95.612ZM450.22 92.941C451.387 91.23 451.921 89.1568 451.921 86.816H448.921C448.921 88.6992 448.495 90.146 447.742 91.251L450.22 92.941ZM451.921 86.816C451.921 83.1991 451.1 80.0895 449.342 77.599L446.892 79.329C448.206 81.1905 448.921 83.6489 448.921 86.816H451.921ZM449.342 77.599C447.718 75.2974 445.577 73.0305 442.944 70.7931L441.002 73.0789C443.489 75.1935 445.444 77.2786 446.892 79.329L449.342 77.599ZM442.965 70.8112L433.173 62.1712L431.189 64.4208L440.981 73.0608L442.965 70.8112ZM433.159 62.159C430.523 59.8909 428.428 57.3949 426.856 54.6736L424.258 56.1744C426.014 59.2131 428.335 61.9651 431.203 64.433L433.159 62.159ZM426.875 54.7077C425.423 52.0366 424.657 48.6821 424.657 44.576H421.657C421.657 49.0459 422.491 52.9234 424.239 56.1403L426.875 54.7077ZM424.657 44.576C424.657 38.7351 426.35 34.4421 429.554 31.4672L427.512 29.2688C423.548 32.9499 421.657 38.1289 421.657 44.576H424.657ZM429.554 31.4672C432.791 28.4608 437.286 26.876 443.221 26.876V23.876C436.74 23.876 431.443 25.6191 427.512 29.2688L429.554 31.4672ZM443.221 26.876C446.722 26.876 449.526 27.4302 451.699 28.4596L452.983 25.7484C450.292 24.4738 447.016 23.876 443.221 23.876V26.876ZM451.728 28.4732C453.94 29.4625 455.639 30.8352 456.878 32.5801L459.324 30.8439C457.747 28.6208 455.606 26.9215 452.954 25.7348L451.728 28.4732ZM456.896 32.6058C458.25 34.43 459.26 36.5311 459.919 38.9257L462.811 38.1303C462.062 35.4049 460.896 32.962 459.306 30.8182L456.896 32.6058ZM459.921 38.9352C460.595 41.3232 461.027 43.8763 461.212 46.598L464.206 46.394C464.007 43.4837 463.543 40.7247 462.809 38.1208L459.921 38.9352ZM462.451 45.0183L450.355 47.1304L450.871 50.0856L462.967 47.9736L462.451 45.0183ZM452.111 48.5292C451.979 46.0286 451.682 43.7625 451.21 41.7392L448.288 42.4208C448.712 44.2375 448.991 46.3234 449.115 48.6868L452.111 48.5292ZM451.22 41.7858C450.794 39.6543 449.949 37.8551 448.602 36.5073L446.48 38.6287C447.309 39.4569 447.936 40.6657 448.278 42.3742L451.22 41.7858ZM448.633 36.5399C447.233 35.0522 445.236 34.436 442.933 34.436V37.436C444.726 37.436 445.801 37.9078 446.449 38.596L448.633 36.5399ZM442.933 34.436C440.452 34.436 438.361 35.2838 436.876 37.0981L439.198 38.9979C440.017 37.9962 441.19 37.436 442.933 37.436V34.436ZM436.871 37.1042C435.529 38.7624 434.905 40.8105 434.905 43.136H437.905C437.905 41.3655 438.369 40.0216 439.203 38.9918L436.871 37.1042ZM434.905 43.136C434.905 45.9633 435.492 48.4365 436.768 50.4632L439.306 48.8648C438.406 47.4355 437.905 45.5567 437.905 43.136H434.905ZM436.782 50.4849C437.966 52.2965 439.637 54.1255 441.753 55.9769L443.729 53.7191C441.749 51.9865 440.284 50.3594 439.292 48.8431L436.782 50.4849ZM441.749 55.9734L451.445 64.5174L453.429 62.2666L443.733 53.7226L441.749 55.9734ZM451.472 64.5406C454.546 67.1224 457.161 70.1668 459.319 73.6809L461.875 72.1111C459.553 68.3292 456.728 65.0376 453.402 62.2434L451.472 64.5406ZM459.335 73.7071C461.455 77.0042 462.553 81.061 462.553 85.952H465.553C465.553 80.603 464.347 75.9558 461.859 72.0849L459.335 73.7071ZM462.553 85.952C462.553 89.4318 461.776 92.4633 460.258 95.0896L462.856 96.5904C464.666 93.4567 465.553 89.8962 465.553 85.952H462.553ZM460.246 95.1115C458.784 97.7433 456.713 99.8184 454.003 101.35L455.479 103.962C458.657 102.166 461.13 99.6967 462.868 96.5685L460.246 95.1115ZM454.013 101.345C451.393 102.8 448.261 103.556 444.565 103.556V106.556C448.677 106.556 452.329 105.712 455.469 103.967L454.013 101.345ZM495.954 104H494.454V105.5H495.954V104ZM495.954 26.24V24.74H494.454V26.24H495.954ZM510.066 26.24H511.566V24.74H510.066V26.24ZM510.066 58.784H508.566V60.284H510.066V58.784ZM526.002 58.784V60.284H527.502V58.784H526.002ZM526.002 26.24V24.74H524.502V26.24H526.002ZM540.114 26.24H541.614V24.74H540.114V26.24ZM540.114 104V105.5H541.614V104H540.114ZM526.002 104H524.502V105.5H526.002V104ZM526.002 68.864H527.502V67.364H526.002V68.864ZM510.066 68.864V67.364H508.566V68.864H510.066ZM510.066 104V105.5H511.566V104H510.066ZM497.454 104V26.24H494.454V104H497.454ZM495.954 27.74H510.066V24.74H495.954V27.74ZM508.566 26.24V58.784H511.566V26.24H508.566ZM510.066 60.284H526.002V57.284H510.066V60.284ZM527.502 58.784V26.24H524.502V58.784H527.502ZM526.002 27.74H540.114V24.74H526.002V27.74ZM538.614 26.24V104H541.614V26.24H538.614ZM540.114 102.5H526.002V105.5H540.114V102.5ZM527.502 104V68.864H524.502V104H527.502ZM526.002 67.364H510.066V70.364H526.002V67.364ZM508.566 68.864V104H511.566V68.864H508.566ZM510.066 102.5H495.954V105.5H510.066V102.5ZM562.86 104H561.36V105.5H562.86V104ZM562.86 74.336H564.36V74.0967L564.286 73.8693L562.86 74.336ZM547.116 26.24V24.74H545.047L545.691 26.7066L547.116 26.24ZM560.364 26.24L561.796 25.7939L561.468 24.74H560.364V26.24ZM569.964 57.056L568.532 57.5021L570.009 62.2418L571.404 57.4775L569.964 57.056ZM578.988 26.24V24.74H577.865L577.549 25.8184L578.988 26.24ZM591.948 26.24L593.375 26.7015L594.01 24.74H591.948V26.24ZM576.396 74.336L574.969 73.8745L574.896 74.0995V74.336H576.396ZM576.396 104V105.5H577.896V104H576.396ZM564.36 104V74.336H561.36V104H564.36ZM564.286 73.8693L548.542 25.7733L545.691 26.7066L561.435 74.8027L564.286 73.8693ZM547.116 27.74H560.364V24.74H547.116V27.74ZM558.932 26.6861L568.532 57.5021L571.396 56.6099L561.796 25.7939L558.932 26.6861ZM571.404 57.4775L580.428 26.6615L577.549 25.8184L568.525 56.6344L571.404 57.4775ZM578.988 27.74H591.948V24.74H578.988V27.74ZM590.521 25.7785L574.969 73.8745L577.823 74.7975L593.375 26.7015L590.521 25.7785ZM574.896 74.336V104H577.896V74.336H574.896ZM576.396 102.5H562.86V105.5H576.396V102.5ZM598.794 104H597.294V105.5H598.794V104ZM598.794 26.24V24.74H597.294V26.24H598.794ZM631.914 28.832L631.253 30.1785L631.262 30.1832L631.914 28.832ZM639.497 36.8L638.11 37.3699L638.114 37.3804L638.119 37.3909L639.497 36.8ZM639.497 92.96L638.108 92.3948L638.103 92.4071L639.497 92.96ZM632.01 101.312L632.7 102.644L632.709 102.639L632.01 101.312ZM613.002 94.112H611.502V95.612H613.002V94.112ZM624.33 92.384L625.279 93.5449L624.33 92.384ZM626.922 87.392L628.406 87.6102L628.406 87.6041L626.922 87.392ZM626.729 41.888L625.269 42.2288L626.729 41.888ZM623.945 37.664L623.14 38.9295L623.945 37.664ZM613.002 36.32V34.82H611.502V36.32H613.002ZM600.294 104V26.24H597.294V104H600.294ZM598.794 27.74H617.13V24.74H598.794V27.74ZM617.13 27.74C623.362 27.74 628.027 28.5951 631.253 30.1785L632.575 27.4855C628.76 25.6129 623.569 24.74 617.13 24.74V27.74ZM631.262 30.1832C634.523 31.7552 636.783 34.1382 638.11 37.3699L640.885 36.2301C639.268 32.2938 636.472 29.3648 632.565 27.4808L631.262 30.1832ZM638.119 37.3909C639.549 40.7281 640.302 45.0536 640.302 50.432H643.302C643.302 44.8024 642.518 40.0399 640.876 36.2091L638.119 37.3909ZM640.302 50.432V78.848H643.302V50.432H640.302ZM640.302 78.848C640.302 84.3552 639.549 88.8527 638.108 92.3948L640.887 93.5252C642.518 89.5153 643.302 84.6048 643.302 78.848H640.302ZM638.103 92.4071C636.763 95.7878 634.512 98.2966 631.31 99.9852L632.709 102.639C636.547 100.615 639.289 97.5562 640.892 93.5129L638.103 92.4071ZM631.319 99.9804C628.163 101.617 623.667 102.5 617.706 102.5V105.5C623.904 105.5 628.944 104.591 632.7 102.644L631.319 99.9804ZM617.706 102.5H598.794V105.5H617.706V102.5ZM613.002 95.612H617.321V92.612H613.002V95.612ZM617.321 95.612C620.687 95.612 623.461 95.0327 625.279 93.5449L623.38 91.2231C622.382 92.0393 620.484 92.612 617.321 92.612V95.612ZM625.279 93.5449C627.035 92.1089 628.043 90.0747 628.406 87.6102L625.437 87.1738C625.16 89.0613 624.44 90.3551 623.38 91.2231L625.279 93.5449ZM628.406 87.6041C628.74 85.2717 628.901 82.4764 628.901 79.232H625.901C625.901 82.3876 625.743 85.0323 625.437 87.1799L628.406 87.6041ZM628.901 79.232V49.472H625.901V79.232H628.901ZM628.901 49.472C628.901 46.2801 628.675 43.6245 628.19 41.5472L625.269 42.2288C625.68 43.9915 625.901 46.3919 625.901 49.472H628.901ZM628.19 41.5472C627.67 39.3194 626.549 37.5428 624.751 36.3985L623.14 38.9295C624.158 39.5772 624.893 40.6166 625.269 42.2288L628.19 41.5472ZM624.751 36.3985C622.97 35.2654 620.338 34.82 617.13 34.82V37.82C620.193 37.82 622.105 38.2706 623.14 38.9295L624.751 36.3985ZM617.13 34.82H613.002V37.82H617.13V34.82ZM611.502 36.32V94.112H614.502V36.32H611.502ZM652.391 104H650.891V105.5H652.391V104ZM652.391 86.464V84.964H650.891V86.464H652.391ZM669.287 86.464H670.787V84.964H669.287V86.464ZM669.287 104V105.5H670.787V104H669.287ZM653.891 104V86.464H650.891V104H653.891ZM652.391 87.964H669.287V84.964H652.391V87.964ZM667.787 86.464V104H670.787V86.464H667.787ZM669.287 102.5H652.391V105.5H669.287V102.5Z" fill="black" mask="url(#path-1-outside-1_6_28)"/>
</svg>
