<svg width="30" height="32" viewBox="0 0 30 32" fill="none" xmlns="http://www.w3.org/2000/svg">
<path fill-rule="evenodd" clip-rule="evenodd" d="M10.0376 29.8623C7.17302 29.0796 4.17391 28.6848 1.26459 28.3231C0.637965 28.2473 0.0561878 28.6704 0.011429 29.2666C-0.0780887 29.8631 0.369762 30.4087 0.951627 30.4845C3.77143 30.8327 6.6805 31.2053 9.41079 31.9587C9.99265 32.1221 10.6195 31.7857 10.7986 31.207C10.9776 30.6288 10.6195 30.0261 10.0376 29.8623Z" fill="white"/>
<path fill-rule="evenodd" clip-rule="evenodd" d="M18.7204 18.7663C14.1103 14.1859 8.91825 10.1952 4.3976 5.49192C3.99477 5.05267 3.27863 5.02913 2.83104 5.43919C2.38346 5.84969 2.33887 6.53994 2.78646 6.9792C7.3071 11.696 12.4991 15.6998 17.1093 20.2937C17.5569 20.7225 18.2728 20.7286 18.7204 20.3067C19.1233 19.8854 19.168 19.1951 18.7204 18.7663Z" fill="white"/>
<path fill-rule="evenodd" clip-rule="evenodd" d="M27.3595 1.14858C27.4938 3.77017 27.6278 6.39175 27.7621 9.01377C27.7621 9.61426 28.2995 10.0779 28.9261 10.0487C29.5527 10.0191 30 9.50793 30 8.90701C29.8658 6.28107 29.7317 3.65556 29.5975 1.03005C29.5527 0.429562 29.0155 -0.0310455 28.3889 0.00163711C27.807 0.0343198 27.3148 0.548528 27.3595 1.14858Z" fill="white"/>
</svg>
