<svg width="132" height="75" viewBox="0 0 132 75" fill="none" xmlns="http://www.w3.org/2000/svg">
<path d="M54.9182 0.137291C54.0067 0.303001 50.3611 0.717285 46.8811 0.965858C38.0983 1.71156 37.3526 2.45728 35.944 11.6543C35.1983 17.04 34.5355 19.2771 33.3755 20.1057C31.3041 21.68 30.4755 21.5971 30.4755 19.7743C30.4755 17.62 26.6641 16.2943 20.6984 16.2943C13.9042 16.2943 8.9328 17.7029 8.9328 19.6086C8.9328 20.4371 8.10424 21.2657 7.0271 21.5971C6.03283 21.8457 4.12713 23.0885 2.88428 24.3314C0.73001 26.6514 0.647154 26.7342 0.150015 42.8084C-0.595693 64.4339 1.55858 75.5367 3.96141 62.7768C4.54141 59.794 4.45855 54.4911 3.87856 46.2884C2.71857 30.3799 3.21571 28.3085 8.51852 24.9942C12.4956 22.5085 12.6613 22.5085 24.3441 22.5085C31.1383 22.5085 36.524 22.1771 36.9383 21.68C37.4354 21.1828 38.1811 17.9514 38.5954 14.3886C39.0926 10.8258 40.0868 7.01438 40.8326 5.85439L42.1583 3.78297L58.481 4.03155C73.8094 4.28012 74.9694 4.36297 77.3723 6.10296C79.6094 7.76009 80.1894 8.83722 81.4322 14.9686C82.6751 20.7686 83.1722 22.0114 84.6636 22.4257C85.6579 22.6743 93.7779 22.84 102.809 22.9228C117.558 22.9228 119.546 23.0885 122.446 24.58C127.583 27.2314 128.495 29.7171 127.749 39.9913C127.335 46.1226 127.418 48.6083 128.08 48.6083C131.975 48.6083 133.466 33.6942 130.235 27.4799C127.003 21.3486 125.18 20.8514 106.123 20.8514C89.635 20.8514 89.3865 20.8514 87.3151 18.8629C85.7408 17.3714 85.1608 16.0457 85.1608 13.56C85.1608 8.75437 82.2608 4.19726 77.7866 2.04299C74.8037 0.63443 72.318 0.220146 65.3581 0.0544357C60.5524 -0.0284195 55.8296 -0.0284195 54.9182 0.137291Z" fill="black"/>
<path d="M54.9181 29.2199C49.5325 30.6285 47.2125 31.7885 43.8982 34.7713C38.1811 40.0741 36.6897 43.637 36.6897 51.9226C36.6897 58.054 36.9383 59.4626 38.9268 62.694C43.7325 70.8968 49.781 74.4596 58.6467 74.5424C69.3352 74.6253 77.7865 69.6539 81.6808 61.0368C86.9007 49.5198 82.3436 36.9256 70.8266 31.1256C67.4295 29.3028 58.5638 28.3085 54.9181 29.2199ZM67.1809 33.6942C67.5123 33.6942 69.418 35.1856 71.4066 37.0084C76.4608 41.6484 78.7808 47.4484 78.3665 54.0769C77.9522 61.1197 75.0523 65.4282 68.838 68.2453C60.3867 72.1396 53.841 71.6425 48.2068 66.5882C43.4011 62.4454 41.6611 58.3026 41.6611 50.9283C41.6611 45.2112 41.9097 44.2998 44.1468 40.9856C48.3725 35.1027 56.9895 31.5399 63.6181 33.0313C65.1923 33.3628 66.7666 33.6942 67.1809 33.6942Z" fill="black"/>
<path d="M11.4185 57.7226V69.3225H18.047C22.5212 69.3225 25.5869 68.9082 27.2441 68.0796C35.2811 63.854 34.7011 50.0998 26.3326 47.1998C24.7584 46.6198 20.6984 46.2055 17.467 46.2055L11.4185 46.1227V57.7226ZM24.1784 51.1769C28.404 53.1655 29.0669 61.2025 25.2555 63.9368C24.2612 64.5997 21.8584 65.1797 19.9527 65.1797H16.3898V57.7226V50.2655H19.2898C20.8641 50.2655 23.0184 50.6798 24.1784 51.1769Z" fill="black"/>
<path d="M105.461 47.8626C105.875 48.5255 107.781 51.5083 109.769 54.574C112.918 59.3797 113.332 60.7054 113.332 64.6825C113.332 69.3225 113.332 69.3225 115.818 69.3225C118.303 69.3225 118.303 69.2396 118.303 64.9311C118.303 61.2025 118.801 59.7111 122.032 54.574C124.103 51.2598 125.76 48.4426 125.76 48.1941C125.76 47.9455 124.683 47.7798 123.358 47.7798C121.286 47.7798 120.541 48.4426 118.469 52.0055L116.066 56.2312L113.498 52.0055C111.758 49.2712 110.266 47.7798 109.272 47.7798C108.361 47.7798 107.035 47.5312 106.206 47.1998C105.129 46.7855 104.963 46.9512 105.461 47.8626Z" fill="black"/>
<path d="M86.8179 58.5511V69.3225H89.3036C91.7065 69.3225 91.7893 69.2396 91.7893 65.1797V61.0368H96.015C101.152 61.0368 102.975 60.1254 104.052 56.894C105.129 53.9112 103.969 49.7683 101.732 48.6084C100.904 48.1112 97.175 47.7798 93.5293 47.7798H86.8179V58.5511ZM99.5778 52.9169C101.069 55.3197 99.2464 57.3083 95.1864 57.5569L91.7893 57.8054V54.4083V51.0112L95.1864 51.2598C97.4236 51.4255 98.9978 52.0055 99.5778 52.9169Z" fill="black"/>
</svg>
