<svg width="38" height="38" viewBox="0 0 38 38" fill="none" xmlns="http://www.w3.org/2000/svg">
<path fill-rule="evenodd" clip-rule="evenodd" d="M16.9135 14.2768C13.3861 11.3772 10.5279 7.92417 8.38005 3.90113C7.95049 3.09983 6.95095 2.79417 6.14139 3.22373C5.34008 3.6533 5.03438 4.65288 5.46394 5.46245C7.82655 9.86549 10.9492 13.649 14.8153 16.8294C15.5175 17.4077 16.5666 17.3085 17.1448 16.6064C17.7231 15.8959 17.6157 14.855 16.9135 14.2768Z" fill="black"/>
<path fill-rule="evenodd" clip-rule="evenodd" d="M15.0325 2.98421C15.2143 6.3216 15.3795 9.65899 15.5861 12.9964C15.6439 13.9051 16.4287 14.599 17.3374 14.5412C18.2461 14.4833 18.94 13.6986 18.8821 12.7899C18.6756 9.46072 18.5104 6.13161 18.3286 2.79422C18.2791 1.888 17.4943 1.18996 16.5856 1.24117C15.6769 1.29239 14.9747 2.07303 15.0325 2.98421Z" fill="black"/>
<path fill-rule="evenodd" clip-rule="evenodd" d="M27.2967 3.66165C25.1819 6.85034 22.7863 9.79118 20.3742 12.7651C19.7959 13.4755 19.9032 14.5164 20.6136 15.0864C21.3241 15.6647 22.365 15.5573 22.935 14.8468C25.4133 11.7986 27.875 8.76683 30.0559 5.48727C30.5598 4.72727 30.3449 3.70295 29.5849 3.19904C28.8332 2.69513 27.8006 2.90165 27.2967 3.66165Z" fill="black"/>
<path fill-rule="evenodd" clip-rule="evenodd" d="M35.4886 15.516C29.7556 15.772 23.6673 15.7803 17.9342 15.4168C17.0256 15.3673 16.2408 16.0529 16.1829 16.9699C16.1251 17.8786 16.819 18.6634 17.7277 18.7212C23.5764 19.0847 29.7886 19.0764 35.6373 18.8203C36.546 18.779 37.2564 18.0025 37.2151 17.0938C37.1738 16.1851 36.3973 15.4747 35.4886 15.516Z" fill="black"/>
<path fill-rule="evenodd" clip-rule="evenodd" d="M14.811 16.565C18.3466 20.8937 22.0062 25.1398 25.2858 29.6668C25.8228 30.402 26.8554 30.5672 27.5989 30.0302C28.3341 29.4932 28.4993 28.4606 27.9623 27.7254C24.6414 23.1489 20.9406 18.8532 17.3637 14.475C16.7854 13.7728 15.7445 13.6654 15.0423 14.2437C14.3319 14.8219 14.2327 15.8628 14.811 16.565Z" fill="black"/>
<path fill-rule="evenodd" clip-rule="evenodd" d="M15.8817 17.821C16.8069 22.3315 17.063 26.6436 17.1291 31.2119C17.1373 32.1206 17.8891 32.8475 18.7978 32.8393C19.7148 32.8228 20.4417 32.0793 20.4252 31.1623C20.3591 26.3793 20.0865 21.8771 19.12 17.1519C18.93 16.2597 18.0626 15.6814 17.1622 15.8714C16.27 16.0532 15.6917 16.9288 15.8817 17.821Z" fill="black"/>
<path fill-rule="evenodd" clip-rule="evenodd" d="M16.0308 17.4577C13.3543 22.8108 11.9747 28.7586 9.10822 33.996C8.6704 34.789 8.96773 35.7968 9.76903 36.2346C10.5703 36.6725 11.57 36.375 12.0078 35.582C14.8908 30.3116 16.2869 24.3307 18.9882 18.9364C19.393 18.1186 19.0625 17.1273 18.253 16.7142C17.4351 16.3094 16.4439 16.6399 16.0308 17.4577Z" fill="black"/>
<path fill-rule="evenodd" clip-rule="evenodd" d="M17.5038 16.2429C12.1756 17.1846 6.85555 17.6142 1.49425 18.2503C0.585554 18.3577 -0.0587938 19.1755 0.0485975 20.0842C0.155989 20.9929 0.973891 21.6373 1.88259 21.5299C7.30172 20.8938 12.6878 20.4477 18.0821 19.4977C18.9743 19.3325 19.5774 18.4733 19.4204 17.5812C19.2552 16.6807 18.4043 16.0777 17.5038 16.2429Z" fill="black"/>
<path fill-rule="evenodd" clip-rule="evenodd" d="M21.2114 13.7321C20.1127 13.6825 19.0718 13.6081 17.9979 13.4512C17.0892 13.319 16.2548 13.9468 16.1227 14.8473C15.9905 15.7477 16.6183 16.5903 17.5187 16.7225C18.7083 16.896 19.8566 16.9786 21.0626 17.0281C21.9713 17.0694 22.7478 16.3672 22.7809 15.4503C22.8222 14.5416 22.1201 13.7734 21.2114 13.7321Z" fill="black"/>
</svg>
