<svg width="189" height="173" viewBox="0 0 189 173" fill="none" xmlns="http://www.w3.org/2000/svg">
<path d="M46.7476 8.40675C46.6671 9.1718 44.3952 9.64024 44.5507 10.1748C44.6801 10.6205 45.3382 10.9867 45.3662 11.5687C45.4045 12.3713 44.1929 12.0221 44.2339 12.8807C44.2512 13.3334 44.7036 14.0096 44.7879 14.3221C45.0003 15.0529 42.9755 15.2615 42.998 15.7321C43.0191 16.1752 43.6479 16.5557 43.7618 16.9473C43.99 17.7315 42.1894 17.9257 42.433 18.7628C43.4433 22.2374 42.1904 23.9204 41.6012 27.2616C41.4103 28.3403 42.0698 29.7293 41.9063 30.9248C41.5677 33.4381 40.5411 35.7849 39.9534 38.1589C38.4376 44.2128 36.7437 50.3485 35.376 56.2409C34.8795 58.3503 33.9395 60.6004 33.7914 62.8442C33.7497 63.5101 32.9871 64.5904 33.2036 65.3109C33.8047 67.3778 37.8341 70.338 39.3073 71.6335C43.1489 75.0117 46.7694 79.1106 50.7011 82.1966C53.1077 84.0874 55.5952 85.771 58.002 87.6621C72.9223 99.4565 87.5938 111.204 101.807 124.963C108.267 131.214 115.368 136.226 121.654 142.828C128.05 149.553 134.727 155 141.425 160.89C142.329 161.685 147.784 166.403 148.373 166.324C149.354 166.178 148.614 164.56 148.493 164.122C148.4 163.801 149.687 163.275 149.906 163.057C150.232 162.72 149.657 162.201 150.118 161.891C150.872 161.361 151.083 159.888 151.854 159.346C152.478 158.9 153.275 158.632 153.924 158.182C154.071 158.086 153.736 157.42 153.698 157.175C153.628 156.702 153.951 156.124 154.031 155.703C154.361 153.832 155.367 152.967 154.777 150.935C154.424 149.724 152.436 148.254 152.373 146.925C152.305 145.42 154.388 144.626 154.863 143.412C155.141 142.701 154.547 141.331 154.671 140.392C154.907 138.637 154.912 138.655 155.864 137.649C156.462 137.021 156.245 135.464 156.839 134.845C157.523 134.121 159.532 132.864 159.458 131.313C159.407 130.261 160.458 127.604 161.074 127.178C161.623 126.799 162.796 127.433 163.37 127.022C164.262 126.388 163.355 122.275 164.554 122.096C166.411 121.82 168.652 122.146 170.609 121.864C171.021 121.802 171.971 122.292 172.256 122.092C173.274 121.383 173.384 119.331 174.037 118.499C174.314 118.133 175.356 117.392 175.327 116.783C175.299 116.109 174.202 115.435 174.161 114.67C174.146 114.366 175.058 114.425 175.296 114.315C175.889 114.041 176.104 112.838 175.906 112.133C175.802 111.777 174.899 111.446 174.717 111.352C173.694 110.891 171.818 108.949 170.93 108.022C165.231 102.03 158.202 98.169 152.035 93.4361C144.688 87.81 137.24 82.3479 130.005 76.3708C124.605 71.9137 119.321 66.9754 114.093 62.112C105.102 53.7284 95.6419 46.298 86.5125 38.2698C82.454 34.7009 78.6282 30.4745 74.4681 27.1347C68.831 22.6017 63.2003 18.0212 57.5629 13.4884C54.9741 11.411 52.3612 9.45763 49.8211 7.22389C49.5411 6.97762 47.8554 5.13754 47.5073 5.18918C46.2291 5.35172 46.8673 7.19914 46.7476 8.40675Z" fill="#76B4CE"/>
<path d="M73.9269 26.6849C69.6133 23.2096 65.3073 19.7148 60.9935 16.2394C54.9066 18.3266 48.8118 20.4337 42.7198 22.5026C42.496 23.9764 41.938 25.3426 41.6049 27.2513C41.414 28.33 42.0735 29.7189 41.9101 30.9144C41.6159 33.0958 40.8098 35.1589 40.2114 37.2183C48.6518 34.7344 57.1658 32.4346 65.5092 29.6396C68.325 28.6809 71.1305 27.6869 73.9269 26.6849Z" fill="#292524"/>
<path d="M167.284 104.577C165.781 105.284 164.263 105.966 162.662 106.427C156.426 108.211 149.964 109.332 143.732 111.199C133.882 114.153 124.211 117.704 114.484 120.993C110.351 122.39 106.221 123.801 102.092 125.227C106.067 129.041 110.271 132.393 114.368 135.956C123.52 132.771 132.501 129.277 141.92 126.806C150.514 124.549 159.247 121.659 167.466 118.344C170.133 117.268 171.785 115.87 174.184 114.796L174.165 114.66C174.151 114.383 174.91 114.4 175.218 114.326C175.474 113.703 177.042 112.394 175.039 111.49C174.884 111.421 174.76 111.364 174.708 111.344C173.685 110.883 171.809 108.941 170.92 108.014C169.749 106.785 168.53 105.646 167.284 104.577Z" fill="#292524"/>
<path d="M112.086 60.2541C105.467 62.4576 98.8908 64.8034 92.2959 67.0404C80.7372 70.9463 69.2583 74.9891 57.6749 78.8336C55.0795 79.6943 52.4454 80.5606 49.8631 81.5122C50.1379 81.7409 50.4169 81.9595 50.6957 82.1784C53.1026 84.0691 55.5902 85.7527 57.9967 87.6436C59.4454 88.7852 60.8901 89.9363 62.3389 91.0776C71.09 88.482 79.9304 86.1244 88.5974 83.216C98.9983 79.7244 109.085 75.6383 119.727 72.8352C121.283 72.4268 122.838 71.9908 124.397 71.5449C120.925 68.4648 117.49 65.2582 114.078 62.0859L112.086 60.2541Z" fill="#292524"/>
<path d="M98.9325 48.847C94.7863 45.347 90.6377 41.8842 86.5521 38.2914C84.3926 39.0315 82.2419 39.7794 80.0731 40.5114C68.5144 44.4173 57.0359 48.46 45.4523 52.3048C42.1452 53.4012 38.7814 54.4879 35.5622 55.7948L35.4601 55.8378L35.3667 56.2328C34.87 58.3425 33.93 60.5926 33.7818 62.8359C33.74 63.5021 32.9778 64.5822 33.1941 65.3031C33.5205 66.4254 34.8509 67.8074 36.2389 69.0414C38.0147 68.413 39.794 67.8071 41.5766 67.2237C53.0906 63.4643 64.8972 60.5717 76.376 56.7145C83.947 54.1557 91.3562 51.2956 98.9325 48.847Z" fill="#292524"/>
<path d="M155.509 137.999L154.6 138.274C145.146 141.113 135.848 144.487 126.518 147.661C130.45 151.398 134.458 154.816 138.483 158.316C143.189 156.685 147.925 155.134 152.782 153.862C153.432 153.691 154.095 153.518 154.749 153.337C154.962 152.636 155.062 151.915 154.772 150.917C154.419 149.705 152.431 148.235 152.367 146.906C152.3 145.402 154.383 144.608 154.858 143.394C155.135 142.683 154.542 141.312 154.666 140.374C154.866 138.866 154.9 138.657 155.509 137.999Z" fill="#292524"/>
<path d="M151.698 93.1792C147.164 89.7088 142.593 86.2998 138.062 82.7922C136.166 83.2603 134.276 83.7466 132.402 84.3136C122.551 87.2679 112.881 90.8185 103.154 94.1073C94.4496 97.0493 85.788 100.068 77.0927 103.018C81.2039 106.421 85.2882 109.893 89.3427 113.472C92.7235 112.466 96.1069 111.423 99.4514 110.293C109.853 106.801 119.939 102.715 130.581 99.9122C137.671 98.043 144.714 95.7973 151.698 93.1792Z" fill="#292524"/>
</svg>
