<svg width="181" height="145" viewBox="0 0 181 145" fill="none" xmlns="http://www.w3.org/2000/svg">
<path d="M12.124 97.4053C11.5808 97.7924 18.9417 94.7325 19.5387 99.2583C19.8441 101.584 18.8065 104.159 18.0452 106.149C17.6806 107.102 16.4836 109.593 17.1762 109.148C19.0765 107.928 22.8879 107.294 23.0753 111.641C23.0962 112.15 22.3552 115.182 22.4539 115.527C22.5409 115.832 25.4909 114.31 26.0933 115.285C27.2433 117.157 23.9535 121.387 24.6005 122.174C25.592 123.373 30.497 119.305 30.2065 124.505C30.0888 126.594 29.2355 127.845 28.7091 129.649C28.2512 131.227 29.1955 135.068 28.8903 137.208C28.8224 137.684 28.0198 141.95 28.3129 142.113C29.0665 142.527 30.7962 140.019 31.2794 139.512C33.6506 137.023 36.2843 134.325 38.8328 132.221C51.8656 121.461 64.198 111.169 78.2867 103.402C88.8793 97.5653 99.7286 92.5088 110.238 86.3804C120.796 80.2217 131.347 73.3504 142.06 68.0435C145.505 66.3352 148.791 63.8047 152.249 62.1993C154.141 61.3212 157.931 59.5989 157.931 59.5989C157.931 59.5989 151.42 61.1822 151.281 57.9369C151.155 54.9893 153.507 53.7841 154.154 51.5575C154.656 49.8411 150.411 51.8939 150.514 50.0573C150.583 48.8236 152.95 47.3364 152.724 46.5457C152.32 45.1292 147.632 48.3691 147.159 43.4899C146.959 41.4492 149.724 37.7627 149.363 36.498C149.125 35.6625 144.924 37.7381 144.053 36.0677C142.943 33.9397 143.886 30.9081 145.044 29.1535C145.164 28.9707 147.34 26.0815 147.129 26.0719C142.715 25.8348 134.782 26.0482 133.829 22.7483C132.766 19.0652 142.304 9.0426 143.836 7.60245C144.166 7.29165 148.085 2.68087 147.423 2.85817C132.635 6.80816 126.151 14.003 119.32 18.3886C110.705 23.9195 104.058 27.4447 95.8521 34.2294C83.092 44.7633 69.4547 53.9643 56.0196 62.5894C46.3621 68.7895 34.1995 70.3038 25.6946 79.7161C22.8251 82.89 18.862 85.603 16.0229 89.2523C15.1152 90.4051 11.8994 97.5495 12.124 97.4053Z" fill="#77AFC7"/>
<path d="M23.5157 115.318C24.8995 111.757 25.9919 107.866 26.4702 103.528C27.0401 98.3599 27.315 92.9976 27.5895 87.6381C27.768 84.1534 27.9464 80.6697 28.2061 77.2418C30.544 75.189 33.0829 73.5746 35.7196 72.1882C34.1338 77.968 32.3742 84.9034 32.4959 91.4965C32.6262 98.5422 31.032 112.562 29.5476 118.728C29.3785 119.432 29.2289 120.148 29.0797 120.863C29.014 121.178 28.9483 121.493 28.8811 121.807C28.2276 121.704 27.423 121.922 26.6785 122.123C25.7675 122.369 24.946 122.592 24.6002 122.174C24.3318 121.847 24.7411 120.928 25.2295 119.831C25.9189 118.283 26.766 116.381 26.0933 115.285C25.7207 114.682 24.4514 115.034 23.5157 115.318Z" fill="#292524"/>
<path d="M42.3061 129.354C45.0892 121.612 47.5111 113.543 47.931 103.999C48.1015 100.119 47.6807 96.2503 47.2576 92.3646C47.0038 90.0313 46.7494 87.692 46.6218 85.3403C46.2908 79.2362 46.3015 73.2511 46.5979 67.3381C49.1825 66.2401 51.7308 65.0932 54.1536 63.7159C55.1646 67.8317 55.7841 72.2953 55.1244 76.305C54.8351 78.0639 54.7479 79.9667 54.6608 81.8611C54.6099 82.9702 54.5592 84.0759 54.4681 85.1489C54.3143 86.9621 54.1232 88.7572 53.9319 90.5528C53.6864 92.86 53.4408 95.1672 53.2742 97.5114C53.2188 98.2972 53.1654 99.0838 53.1139 99.8713C52.8517 103.821 52.5726 108.022 51.8995 111.605C51.5638 113.391 51.1473 115.085 50.7331 116.77C50.182 119.011 49.6346 121.238 49.2861 123.647C46.9654 125.52 44.6436 127.426 42.3061 129.354Z" fill="#292524"/>
<path d="M65.7403 56.2517C65.1626 61.5473 64.7998 66.9401 64.735 72.3903C64.61 82.9492 66.4666 94.8216 68.9612 105.099L69.0053 105.281C69.2692 106.368 69.5296 107.442 69.7773 108.509C71.9581 107.097 74.1719 105.74 76.4288 104.447C76.28 101.863 75.9293 99.3541 75.2621 97.0156C74.8812 95.6807 74.4734 94.3345 74.0622 92.9764C72.2127 86.871 70.2904 80.5252 70.4117 73.8809C70.4626 71.0829 70.8092 68.3983 71.1552 65.7156C71.4983 63.0582 71.8411 60.4026 71.8962 57.6398C71.9344 55.7201 72.0389 53.8239 72.149 51.9293C70.0172 53.3913 67.8796 54.8311 65.7403 56.2517Z" fill="#292524"/>
<path d="M82.3727 44.6903C82.5885 49.0413 83.002 53.3745 83.7932 57.6864C84.0922 59.3168 84.405 60.9644 84.7202 62.6244C86.149 70.1515 87.6253 77.9291 88.099 85.4977C88.358 89.6341 88.6015 93.7669 88.7453 97.859C89.7645 97.3323 90.7847 96.8077 91.8047 96.2827C93.4433 95.4395 95.0821 94.5961 96.7187 93.7458C96.3455 90.8572 95.8231 88.0296 95.0633 85.3668C94.6107 83.7804 94.427 82.4404 94.2202 80.9346C94.1525 80.4412 94.0824 79.9301 93.9995 79.3862L93.8596 78.4704C93.2911 74.7497 92.7017 70.8908 92.3129 67.1716C92.1738 65.8424 91.7638 64.5127 91.3677 63.229C91.2387 62.8103 91.1109 62.3966 90.9947 61.9893C89.9525 58.337 89.3846 54.3994 88.8251 50.5198C88.6528 49.3252 88.4815 48.1361 88.2969 46.9623C87.9759 44.9176 87.7669 42.8436 87.6204 40.7631C85.8817 42.0923 84.1316 43.4006 82.3727 44.6903Z" fill="#292524"/>
<path d="M110.737 86.0884C109.202 84.6834 107.709 83.1538 106.342 81.3348C99.5918 72.3479 99.2909 55.1648 99.5707 43.1934C99.6761 38.6989 100.045 34.5325 100.599 30.5205C104.177 27.8826 107.571 25.7192 111.132 23.507C110.933 26.1168 110.592 28.664 110.252 31.2134C109.899 33.8481 109.547 36.4849 109.35 39.1941C109.184 41.4815 108.93 43.7883 108.674 46.113C108.106 51.2722 107.529 56.5192 107.876 61.8318C108.217 67.0541 110.227 73.8275 111.938 78.4344C112.788 80.7217 113.982 82.2124 115.326 83.3665C113.796 84.2834 112.267 85.1931 110.737 86.0884Z" fill="#292524"/>
<path d="M120.047 17.9114C120.05 20.122 120.077 22.3408 120.302 24.5759C121.011 31.6217 122.335 38.4563 124.224 45.076C124.609 46.4276 125.111 47.668 125.613 48.9077C126.023 49.9203 126.433 50.9319 126.778 52.003C128.022 55.8576 127.924 61.729 127.478 65.4863C127.403 66.1158 127.298 66.8017 127.19 67.5087C126.941 69.1349 126.675 70.8721 126.721 72.2889C126.766 73.6372 126.866 74.9908 127.021 76.3399C128.582 75.4162 130.143 74.5029 131.707 73.6079C130.907 69.6581 130.023 65.1252 130.678 61.8448C131.371 58.3786 130.998 55.4244 130.529 51.7214L130.473 51.2753C130.367 50.4376 130.289 49.5604 130.209 48.6698C129.955 45.838 129.689 42.8712 128.509 40.6227C127.09 37.9166 125.852 34.5751 124.94 31.3765C124.228 28.8809 124.049 26.255 123.872 23.6371C123.807 22.6819 123.742 21.7278 123.651 20.7817C123.476 18.9489 123.434 17.1997 123.434 15.4776C122.281 16.3406 121.164 17.1611 120.047 17.9114Z" fill="#292524"/>
<path d="M135.394 30.8015C134.921 34.6172 134.541 37.6835 135.488 43.4502C136.41 49.0665 137.583 54.7325 138.757 60.4025C139.34 63.2158 139.923 66.0299 140.475 68.8399C141.003 68.5706 141.531 68.3049 142.06 68.0433C142.971 67.591 143.872 67.0814 144.768 66.5464L144.683 66.1534C144.198 63.8833 143.713 61.6192 143.255 59.361C142.489 55.5786 142.469 52.1067 142.45 48.643C142.43 45.1705 142.411 41.7051 141.639 37.9437C141.226 35.9326 140.953 33.1581 140.68 30.3853C140.521 28.7674 140.361 27.1499 140.175 25.6847C138.607 25.5116 137.128 25.2335 135.984 24.7568C135.847 27.1502 135.611 29.0545 135.394 30.8015Z" fill="#292524"/>
<path d="M136.027 16.8624C137.219 15.0734 138.712 13.2156 140.085 11.6264C139.993 11.3398 139.899 11.0513 139.805 10.7627C139.243 9.03833 138.681 7.31248 138.515 5.98827C137.445 6.46528 136.384 6.98044 135.333 7.53344C135.71 11.1678 135.925 14.2321 136.027 16.8624Z" fill="#292524"/>
</svg>
