<svg width="236" height="13" viewBox="0 0 236 13" fill="none" xmlns="http://www.w3.org/2000/svg">
<path fill-rule="evenodd" clip-rule="evenodd" d="M135.768 1.19076C146.856 1.59882 157.813 2.10057 168.498 2.64911C183.624 3.4251 198.744 4.22784 213.773 5.49885C218.503 5.90022 223.307 6.15441 228.009 6.65612C230.96 6.97053 234.873 7.41867 235.386 7.51232C235.655 7.56584 235.772 7.64619 235.81 7.67294C236.076 7.86025 236.028 8.04079 235.877 8.18127C235.817 8.24148 235.664 8.38871 235.241 8.40878C206.911 9.78013 177.942 7.10433 149.577 6.82337C100.388 6.34173 49.7081 8.25494 0.909516 12.4292C0.483537 12.4627 0.0693828 12.2954 0.0102092 12.0479C-0.06079 11.807 0.246797 11.5729 0.672776 11.5394C49.5542 7.35849 100.317 5.43858 149.601 5.92691C176.035 6.1878 202.992 8.53587 229.463 7.73313C228.855 7.66623 228.258 7.59931 227.714 7.53911C223.032 7.03739 218.248 6.7899 213.536 6.38853C198.539 5.11752 183.45 4.31478 168.344 3.54549C149.601 2.5822 130.041 1.75269 110.328 1.3647C103.275 1.42491 96.2466 1.48514 89.2179 1.55872C74.0127 1.71927 58.7365 2.18754 43.5668 2.81636C38.9993 3.01036 34.4319 3.21103 29.8644 3.38496C28.3498 3.44516 24.4449 3.61906 23.9006 3.60568C23.2262 3.5923 23.0961 3.27123 23.0842 3.21772C23.0487 3.09731 23.0724 2.93006 23.4037 2.78958C23.4392 2.76951 23.6522 2.70257 24.1255 2.66244C51.7078 0.294342 81.1597 -0.10028 110.304 0.468327C141.046 0.220812 171.906 0.113727 202.569 2.92261e-06C203.008 2.88423e-06 203.367 0.200718 203.37 0.44823C203.373 0.695743 203.019 0.896464 202.58 0.903154C180.377 0.98343 158.061 1.06366 135.768 1.19076Z" fill="white"/>
</svg>
