<svg width="33" height="34" viewBox="0 0 33 34" fill="none" xmlns="http://www.w3.org/2000/svg">
<path d="M2.79964 4.8705C5.11387 1.63837 8.61572 0 13.2062 0H14.8557V5.99037L13.5295 6.3325C11.2697 6.91475 9.69778 8.06012 8.85654 9.741C8.41746 10.6464 8.16851 11.6833 8.13407 12.75H13.2062C13.6437 12.75 14.0632 12.9739 14.3726 13.3724C14.6819 13.7709 14.8557 14.3114 14.8557 14.875V29.75C14.8557 32.0939 13.3761 34 11.5567 34H1.65985C1.22238 34 0.802831 33.7761 0.493494 33.3776C0.184156 32.9791 0.0103717 32.4386 0.0103717 31.875V21.25L0.0153201 15.0471C0.00047481 14.8113 -0.312927 9.2225 2.79964 4.8705ZM29.701 34H19.8041C19.3667 34 18.9471 33.7761 18.6378 33.3776C18.3285 32.9791 18.1547 32.4386 18.1547 31.875V21.25L18.1596 15.0471C18.1448 14.8113 17.8314 9.2225 20.9439 4.8705C23.2582 1.63837 26.76 0 31.3505 0H33V5.99037L31.6738 6.3325C29.414 6.91475 27.8421 8.06012 27.0008 9.741C26.5618 10.6464 26.3128 11.6833 26.2784 12.75H31.3505C31.788 12.75 32.2075 12.9739 32.5169 13.3724C32.8262 13.7709 33 14.3114 33 14.875V29.75C33 32.0939 31.5204 34 29.701 34Z" fill="black"/>
</svg>
